<svg width="50" height="50" viewBox="0 0 50 50" fill="none" xmlns="http://www.w3.org/2000/svg">
<rect opacity="0.1" width="50" height="50" rx="5" fill="#F14D5D"/>
<path d="M36.2676 23.7676H34.6465V21.362C34.6465 19.6575 33.2675 18.276 31.5605 18.276H30.724V14.3014C30.724 13.0324 29.6915 12 28.4225 12H26.8535H19.0084H17.4395C16.1786 12 15.138 13.0189 15.138 14.3014V19.845H14.3015C13.0388 19.8451 12 20.8656 12 22.1465C12 22.9782 12.4435 23.7082 13.1063 24.1125C12.9022 24.4561 12.7845 24.8567 12.7845 25.2845C12.7845 26.1156 13.2274 26.8452 13.8895 27.2498C13.6806 27.601 13.569 28.0031 13.569 28.4226C13.569 29.3046 14.0523 30.0095 14.6748 30.3896C14.4709 30.7329 14.3535 31.1332 14.3535 31.5606C14.3535 32.2488 14.6576 32.8671 15.1379 33.2892V34.6986C15.138 35.9676 16.1705 37 17.4395 37H28.4225C29.0376 37 29.6156 36.7604 30.0494 36.3261C30.4844 35.8916 30.7239 35.3136 30.7239 34.6985V33.862H31.5605C33.0099 33.862 34.229 32.8577 34.5587 31.5084H36.2676C36.6721 31.5084 37 31.1805 37 30.776V24.5C37 24.0955 36.6721 23.7676 36.2676 23.7676ZM19.7409 13.4648H26.1211V14.3014C26.1211 14.7573 25.7525 15.138 25.2845 15.138H20.5775C20.1206 15.138 19.7409 14.7685 19.7409 14.3014V13.4648ZM13.4648 22.1465C13.4648 21.6905 13.8336 21.3099 14.3015 21.3099H15.138V22.9831H14.3015C13.8402 22.9831 13.4648 22.6078 13.4648 22.1465ZM14.2493 25.2845C14.2493 24.8232 14.6247 24.4479 15.0859 24.4479H17.4395C17.9007 24.4479 18.276 24.8232 18.276 25.2845C18.276 25.7458 17.9007 26.1211 17.4395 26.1211H15.0859C14.6247 26.1211 14.2493 25.7458 14.2493 25.2845ZM15.0339 28.4225C15.0339 27.9665 15.4026 27.5859 15.8705 27.5859H17.4395C17.8964 27.5859 18.276 27.9554 18.276 28.4225C18.276 28.8794 17.9066 29.2591 17.4395 29.2591H15.8705C15.4135 29.2591 15.0339 28.8896 15.0339 28.4225ZM15.8184 31.5605C15.8184 31.0993 16.1937 30.724 16.6549 30.724C17.1162 30.724 17.4916 31.0993 17.4916 31.5605C17.4916 32.0218 17.1162 32.3971 16.6549 32.3971C16.1937 32.3971 15.8184 32.0218 15.8184 31.5605ZM29.2591 34.6986C29.2591 35.1545 28.8905 35.5352 28.4225 35.5352H17.4395C16.9782 35.5352 16.6028 35.1599 16.6028 34.6986V33.8607C16.6202 33.8611 16.6375 33.862 16.6549 33.862C17.9239 33.862 18.9563 32.8296 18.9563 31.5606C18.9563 31.1333 18.8389 30.733 18.6351 30.3897C19.0829 30.1163 19.7409 29.4721 19.7409 28.4226C19.7409 27.8339 19.521 27.2796 19.1215 26.8529C19.5053 26.4416 19.7409 25.8902 19.7409 25.2846C19.7409 24.0155 18.7084 22.9831 17.4395 22.9831H16.6029V20.5775V14.3014C16.6029 13.8457 16.9713 13.4648 17.4395 13.4648H18.276V14.3014C18.276 15.5668 19.2992 16.6028 20.5775 16.6028H25.2845C26.5499 16.6028 27.5859 15.5798 27.5859 14.3014V13.4648H28.4225C28.8838 13.4648 29.2591 13.8401 29.2591 14.3014V18.276H25.2845C24.88 18.276 24.5521 18.604 24.5521 19.0084C24.5521 21.5752 26.6403 23.6634 29.2071 23.6634H29.2591V34.6986ZM35.5352 30.0436H33.9141C33.5096 30.0436 33.1816 30.3715 33.1816 30.776C33.1816 31.6699 32.4544 32.3971 31.5605 32.3971H30.724V22.931C30.724 22.5265 30.396 22.1986 29.9916 22.1986H29.207C27.7 22.1986 26.4336 21.148 26.1017 19.7409H31.5605C32.4566 19.7409 33.1816 20.4656 33.1816 21.362V24.5C33.1816 24.9045 33.5096 25.2324 33.9141 25.2324H35.5352V30.0436Z" fill="#F14D5D"/>
<path d="M24.5001 32.397H21.3621C20.9576 32.397 20.6296 32.7249 20.6296 33.1294C20.6296 33.5339 20.9576 33.8618 21.3621 33.8618H24.5001C24.9046 33.8618 25.2325 33.5339 25.2325 33.1294C25.2325 32.7249 24.9046 32.397 24.5001 32.397Z" fill="#F14D5D"/>
</svg>
