<svg width="11" height="11" viewBox="0 0 11 11" fill="none" xmlns="http://www.w3.org/2000/svg">
<path d="M0.322292 9.53333H1.93362V10.6333C1.93362 10.8358 2.0779 11 2.25588 11H10.6777C10.8557 11 11 10.8358 11 10.6333V1.1C11 0.897502 10.8557 0.733333 10.6777 0.733333H9.06641V0.366667C9.06641 0.164169 8.92212 0 8.74415 0C8.56617 0 8.42188 0.164169 8.42188 0.366667V0.733333H6.78907V0.366667C6.78907 0.164169 6.64478 0 6.46681 0C6.28883 0 6.14454 0.164169 6.14454 0.366667V0.733333H4.53322V0.366667C4.53322 0.164169 4.38893 0 4.21095 0C4.03298 0 3.88869 0.164169 3.88869 0.366667V0.733333H2.25588C2.0779 0.733333 1.93362 0.897502 1.93362 1.1V3.3C1.93362 6.00233 0.946519 8.08123 0.115978 8.88499C0.0117358 8.98382 -0.0269145 9.14633 0.0192554 9.2915C0.0654681 9.43666 0.186597 9.53333 0.322292 9.53333ZM10.3555 10.2667H2.57815V9.53333H8.74415C8.81954 9.53333 8.89254 9.50327 8.95046 9.44834C9.33787 9.08121 9.93795 8.20712 10.3555 7.08762V10.2667ZM2.57815 1.46667H3.88869V1.83333C3.88869 2.03583 4.03298 2.2 4.21095 2.2C4.38893 2.2 4.53322 2.03583 4.53322 1.83333V1.46667H6.14454V1.83333C6.14454 2.03583 6.28883 2.2 6.46681 2.2C6.64478 2.2 6.78907 2.03583 6.78907 1.83333V1.46667H8.42188V1.83333C8.42188 2.03583 8.56617 2.2 8.74415 2.2C8.92212 2.2 9.06641 2.03583 9.06641 1.83333V1.46667H10.3555V2.93333H2.57815V1.46667ZM2.57262 3.66642H10.3498C10.2771 5.99243 9.49251 7.82254 8.61778 8.8H1.05532C2.04645 7.36313 2.51945 5.49223 2.57262 3.66642Z" fill="#002B46"/>
</svg>
