<svg width="50" height="50" viewBox="0 0 50 50" fill="none" xmlns="http://www.w3.org/2000/svg">
<g clip-path="url(#clip0_120:225)">
<path d="M48.5348 6.61859H40.6819L25.4633 1.54563C25.1555 1.44306 24.8223 1.44551 24.516 1.55266L10.0421 6.61859H1.46519C0.656013 6.61859 0 7.27461 0 8.08378V41.1804C0 41.9896 0.656013 42.6456 1.46519 42.6456H14.7092V45.5987H10.2907C9.48152 45.5987 8.82551 46.2547 8.82551 47.0639C8.82551 47.8731 9.48152 48.5291 10.2907 48.5291H39.7093C40.5185 48.5291 41.1745 47.8731 41.1745 47.0639C41.1745 46.2547 40.5185 45.5987 39.7093 45.5987H35.2908V42.6455H48.5348C49.344 42.6455 50 41.9895 50 41.1803V8.08378C50 7.27451 49.3441 6.61859 48.5348 6.61859ZM16.9044 11.951C24.7527 14.7043 24.644 14.6973 25 14.6973C25.3392 14.6973 25.2307 14.7043 33.0957 12.0781V15.9032L25 19.0172L16.9044 15.9032V11.951ZM25.0115 4.48391L35.8114 8.08388L25.0115 11.6838L14.7259 8.08388L25.0115 4.48391ZM32.3603 45.5987H17.6396V42.6455H32.3604V45.5987H32.3603ZM47.0696 39.7151C40.612 39.7151 12.6863 39.7151 2.93037 39.7151V9.54897H10.0411L13.974 10.9255V16.9095C13.974 17.5157 14.3473 18.0594 14.9132 18.277C24.6904 22.0469 24.6111 22.0523 25 22.0523C25.3887 22.0523 25.3138 22.0552 35.0868 18.277C35.6527 18.0594 36.026 17.5157 36.026 16.9095V11.1013L38.9798 10.1167V18.3805C38.9798 19.1897 39.6359 19.8457 40.445 19.8457C41.2542 19.8457 41.9102 19.1897 41.9102 18.3805V9.54897H47.0696V39.7151Z" fill="white"/>
<path d="M13.2326 26.4766H7.34885C6.53968 26.4766 5.88367 27.1326 5.88367 27.9418V33.8255C5.88367 34.6346 6.53968 35.2906 7.34885 35.2906H13.2326C14.0417 35.2906 14.6977 34.6346 14.6977 33.8255V27.9418C14.6977 27.1326 14.0417 26.4766 13.2326 26.4766ZM11.7674 32.3603H8.81404V29.4069H11.7674V32.3603Z" fill="white"/>
<path d="M19.1161 26.4766C18.307 26.4766 17.6509 27.1326 17.6509 27.9418C17.6509 28.7509 18.307 29.4069 19.1161 29.4069H42.651C43.4602 29.4069 44.1162 28.7509 44.1162 27.9418C44.1162 27.1326 43.4602 26.4766 42.651 26.4766H19.1161Z" fill="white"/>
<path d="M42.651 32.3603H19.1161C18.307 32.3603 17.6509 33.0163 17.6509 33.8255C17.6509 34.6347 18.307 35.2907 19.1161 35.2907H42.651C43.4602 35.2907 44.1162 34.6347 44.1162 33.8255C44.1162 33.0163 43.4602 32.3603 42.651 32.3603Z" fill="white"/>
</g>
<defs>
<clipPath id="clip0_120:225">
<rect width="50" height="50" fill="white" transform="translate(0 -0.000244141)"/>
</clipPath>
</defs>
</svg>
