<svg width="15" height="15" viewBox="0 0 15 15" fill="none" xmlns="http://www.w3.org/2000/svg">
<path d="M11.3086 6.73828C11.6322 6.73828 11.8945 6.47595 11.8945 6.15234C11.8945 5.82874 11.6322 5.56641 11.3086 5.56641C10.985 5.56641 10.7227 5.82874 10.7227 6.15234C10.7227 6.47595 10.985 6.73828 11.3086 6.73828Z" fill="#F9FAFC"/>
<path d="M12.6563 1.17188H11.8945V0.585938C11.8945 0.262324 11.6322 0 11.3086 0C10.985 0 10.7227 0.262324 10.7227 0.585938V1.17188H8.05666V0.585938C8.05666 0.262324 7.79433 0 7.47072 0C7.14711 0 6.88478 0.262324 6.88478 0.585938V1.17188H4.24806V0.585938C4.24806 0.262324 3.98574 0 3.66212 0C3.33851 0 3.07619 0.262324 3.07619 0.585938V1.17188H2.34377C1.05142 1.17188 1.52588e-05 2.22328 1.52588e-05 3.51562V12.6562C1.52588e-05 13.9486 1.05142 15 2.34377 15H6.82619C7.1498 15 7.41212 14.7377 7.41212 14.4141C7.41212 14.0904 7.1498 13.8281 6.82619 13.8281H2.34377C1.69759 13.8281 1.17189 13.3024 1.17189 12.6562V3.51562C1.17189 2.86945 1.69759 2.34375 2.34377 2.34375H3.07619V2.92969C3.07619 3.2533 3.33851 3.51562 3.66212 3.51562C3.98574 3.51562 4.24806 3.2533 4.24806 2.92969V2.34375H6.88478V2.92969C6.88478 3.2533 7.14711 3.51562 7.47072 3.51562C7.79433 3.51562 8.05666 3.2533 8.05666 2.92969V2.34375H10.7227V2.92969C10.7227 3.2533 10.985 3.51562 11.3086 3.51562C11.6322 3.51562 11.8945 3.2533 11.8945 2.92969V2.34375H12.6563C13.3024 2.34375 13.8281 2.86945 13.8281 3.51562V6.85547C13.8281 7.17908 14.0905 7.44141 14.4141 7.44141C14.7377 7.44141 15 7.17908 15 6.85547V3.51562C15 2.22328 13.9486 1.17188 12.6563 1.17188Z" fill="#F9FAFC"/>
<path d="M11.4551 7.91016C9.50041 7.91016 7.91017 9.50039 7.91017 11.4551C7.91017 13.4098 9.50041 15 11.4551 15C13.4098 15 15 13.4098 15 11.4551C15 9.50039 13.4098 7.91016 11.4551 7.91016ZM11.4551 13.8281C10.1466 13.8281 9.08205 12.7636 9.08205 11.4551C9.08205 10.1466 10.1466 9.08203 11.4551 9.08203C12.7636 9.08203 13.8281 10.1466 13.8281 11.4551C13.8281 12.7636 12.7636 13.8281 11.4551 13.8281Z" fill="#F9FAFC"/>
<path d="M12.3047 10.8691H12.041V10.2539C12.041 9.93029 11.7787 9.66797 11.4551 9.66797C11.1315 9.66797 10.8692 9.93029 10.8692 10.2539V11.4551C10.8692 11.7787 11.1315 12.041 11.4551 12.041H12.3047C12.6283 12.041 12.8906 11.7787 12.8906 11.4551C12.8906 11.1315 12.6283 10.8691 12.3047 10.8691Z" fill="#F9FAFC"/>
<path d="M8.75978 6.73828C9.08339 6.73828 9.34572 6.47595 9.34572 6.15234C9.34572 5.82874 9.08339 5.56641 8.75978 5.56641C8.43618 5.56641 8.17384 5.82874 8.17384 6.15234C8.17384 6.47595 8.43618 6.73828 8.75978 6.73828Z" fill="#F9FAFC"/>
<path d="M6.21095 9.28711C6.53456 9.28711 6.79689 9.02478 6.79689 8.70117C6.79689 8.37757 6.53456 8.11523 6.21095 8.11523C5.88735 8.11523 5.62502 8.37757 5.62502 8.70117C5.62502 9.02478 5.88735 9.28711 6.21095 9.28711Z" fill="#F9FAFC"/>
<path d="M3.66212 6.73828C3.98573 6.73828 4.24806 6.47595 4.24806 6.15234C4.24806 5.82874 3.98573 5.56641 3.66212 5.56641C3.33852 5.56641 3.07619 5.82874 3.07619 6.15234C3.07619 6.47595 3.33852 6.73828 3.66212 6.73828Z" fill="#F9FAFC"/>
<path d="M3.66212 9.28711C3.98573 9.28711 4.24806 9.02478 4.24806 8.70117C4.24806 8.37757 3.98573 8.11523 3.66212 8.11523C3.33852 8.11523 3.07619 8.37757 3.07619 8.70117C3.07619 9.02478 3.33852 9.28711 3.66212 9.28711Z" fill="#F9FAFC"/>
<path d="M3.66212 11.8359C3.98573 11.8359 4.24806 11.5736 4.24806 11.25C4.24806 10.9264 3.98573 10.6641 3.66212 10.6641C3.33852 10.6641 3.07619 10.9264 3.07619 11.25C3.07619 11.5736 3.33852 11.8359 3.66212 11.8359Z" fill="#F9FAFC"/>
<path d="M6.21095 11.8359C6.53456 11.8359 6.79689 11.5736 6.79689 11.25C6.79689 10.9264 6.53456 10.6641 6.21095 10.6641C5.88735 10.6641 5.62502 10.9264 5.62502 11.25C5.62502 11.5736 5.88735 11.8359 6.21095 11.8359Z" fill="#F9FAFC"/>
<path d="M6.21095 6.73828C6.53456 6.73828 6.79689 6.47595 6.79689 6.15234C6.79689 5.82874 6.53456 5.56641 6.21095 5.56641C5.88735 5.56641 5.62502 5.82874 5.62502 6.15234C5.62502 6.47595 5.88735 6.73828 6.21095 6.73828Z" fill="#F9FAFC"/>
</svg>
