<svg width="20" height="20" viewBox="0 0 20 20" fill="none" xmlns="http://www.w3.org/2000/svg">
<path d="M10.8775 16.7571H7.79199L8.22438 13.437H10.4451L10.8775 16.7571Z" fill="#C1BCC4"/>
<path d="M6.13916 17.2501C6.13916 16.6267 6.64455 16.1213 7.26794 16.1213H11.4014C12.0248 16.1213 12.5302 16.6267 12.5302 17.2501C12.5302 17.5202 12.3112 17.7392 12.0411 17.7392H6.62828C6.35815 17.7392 6.13916 17.5202 6.13916 17.2501Z" fill="#F7F4F7"/>
<path d="M11.4016 16.1213H9.12793C9.75133 16.1213 10.2567 16.6267 10.2567 17.2501C10.2567 17.5202 10.0377 17.7392 9.7676 17.7392H12.0412C12.3113 17.7392 12.5303 17.5202 12.5303 17.2501C12.5303 16.6267 12.025 16.1213 11.4016 16.1213Z" fill="#EDEAED"/>
<path d="M16.5509 14.593H2.42243C1.83668 14.593 1.36182 14.1181 1.36182 13.5324V4.03034C1.36182 3.44459 1.83668 2.96973 2.42243 2.96973H16.5509C17.1367 2.96973 17.6115 3.44459 17.6115 4.03034V13.5324C17.6115 14.1181 17.1367 14.593 16.5509 14.593Z" fill="#BED8FB"/>
<path d="M1.36182 12.6965V13.5322C1.36182 14.118 1.83668 14.5929 2.42243 14.5929H16.5509C17.1367 14.5929 17.6115 14.118 17.6115 13.5322V12.6965H1.36182Z" fill="#F7F4F7"/>
<path d="M16.551 2.96973H14.2773C14.8631 2.96973 15.338 3.44459 15.338 4.03034V13.5324C15.338 14.1182 14.8631 14.593 14.2773 14.593H16.551C17.1367 14.593 17.6116 14.1181 17.6116 13.5324V4.03034C17.6116 3.44459 17.1367 2.96973 16.551 2.96973Z" fill="#9DC6FB"/>
<path d="M15.338 12.6965V13.5322C15.338 14.118 14.8631 14.5929 14.2773 14.5929H16.551C17.1368 14.5929 17.6116 14.118 17.6116 13.5322V12.6965H15.338Z" fill="#E0DDE0"/>
<path d="M5.67941 10.9646L7.445 8.56159C7.30937 8.53549 7.14982 8.5048 7.0569 8.48689L6.64798 7.91362V6.60693H4.72039V7.91362L4.31147 8.48689L3.9209 8.56205L5.67941 10.9646Z" fill="#FFECE4"/>
<path d="M7.5912 8.58998C7.44886 8.56259 7.18711 8.51222 7.05676 8.48713C6.96631 8.46971 6.88556 8.42869 6.82007 8.37134L5.68142 9.92107L4.54718 8.37144C4.4811 8.42918 4.40018 8.47009 4.31133 8.48713L3.77685 8.58998C2.37499 8.8598 1.36182 10.0865 1.36182 11.5141V12.6964H10.0062V11.5141C10.0062 10.0865 8.99307 8.8598 7.5912 8.58998Z" fill="#F4E066"/>
<path d="M7.5911 8.58998C7.44876 8.56259 7.18701 8.51222 7.05666 8.48713C6.96621 8.46971 6.88546 8.42869 6.81997 8.37134L6.35547 9.00353C7.1923 9.53749 7.73251 10.472 7.73251 11.5141V12.6964H10.0061V11.5141C10.0061 10.0865 8.99296 8.85976 7.5911 8.58998Z" fill="#EFD133"/>
<path d="M7.59214 4.69932L7.47023 4.69984L7.46818 4.20853C7.4639 3.17916 6.61446 2.80079 5.67269 2.79419C4.73502 2.80879 3.88752 3.19057 3.89183 4.22379L3.89329 4.57018L3.89388 4.7151L3.77198 4.71562C3.59324 4.71638 3.44895 4.86366 3.44971 5.04459L3.45124 5.74238C3.452 5.92331 3.59751 6.06934 3.77625 6.06857L3.89864 6.06805C3.91071 6.54344 4.10999 7.00019 4.46788 7.30946C4.75602 7.55841 5.16045 7.77508 5.69351 7.77883C6.22653 7.77052 6.62916 7.55042 6.91517 7.299C7.27046 6.98671 7.46592 6.52825 7.47405 6.05279L7.59645 6.05227C7.77519 6.05151 7.91948 5.90422 7.91871 5.7233L7.91718 5.02551C7.91638 4.84458 7.77088 4.69855 7.59214 4.69932Z" fill="#FFECE4"/>
<path d="M7.91711 5.02551C7.91634 4.84458 7.77084 4.69855 7.5921 4.69932L7.47019 4.69984L7.46814 4.20853C7.46387 3.17916 6.61442 2.80079 5.67265 2.79419C5.63706 2.79475 5.60164 2.79603 5.56632 2.79763C5.61259 2.93681 5.63848 3.09317 5.63921 3.26892L5.64502 6.05276C5.63692 6.52821 5.44146 6.98667 5.08614 7.29896C4.99353 7.38037 4.88849 7.4583 4.771 7.52703C5.02013 7.6726 5.32626 7.77623 5.6934 7.7788C6.22642 7.77049 6.62905 7.55039 6.91507 7.29896C7.27035 6.98667 7.46581 6.52821 7.47395 6.05276L7.59634 6.05224C7.77508 6.05147 7.91937 5.90419 7.9186 5.72326L7.91711 5.02551Z" fill="#FFDDCE"/>
<path d="M7.36828 3.0774H7.34971C7.24703 3.0774 7.16381 2.99415 7.16381 2.8915C7.16381 2.58748 6.91736 2.34106 6.61338 2.34106H4.86144C4.08176 2.34106 3.44971 2.97312 3.44971 3.7528V4.68574C3.44971 4.82277 3.53643 4.94481 3.66585 4.98986L4.01359 5.11093C4.13515 5.15324 4.26206 5.06289 4.26186 4.93417L4.26109 4.27629C4.25977 3.95636 4.51491 3.6959 4.83099 3.69454L4.83787 3.6945C4.93461 3.69409 5.03031 3.7091 5.12169 3.73848C5.28364 3.79051 5.45147 3.82208 5.62155 3.82135H5.74687C5.91695 3.82208 6.08477 3.79051 6.24672 3.73848C6.33811 3.7091 6.43381 3.69409 6.53054 3.6945L6.53743 3.69454C6.85351 3.6959 7.10865 3.95636 7.10733 4.27629L7.1067 4.93421C7.10653 5.06289 7.23347 5.15324 7.355 5.1109L7.70264 4.98983C7.83205 4.94474 7.91875 4.82273 7.91875 4.6857V3.62783C7.91871 3.32385 7.67229 3.0774 7.36828 3.0774Z" fill="#89808C"/>
<path d="M7.36827 3.0774H7.34971C7.24702 3.0774 7.16381 2.99415 7.16381 2.8915C7.16381 2.58748 6.91735 2.34106 6.61337 2.34106H5.28857C5.50524 2.56141 5.63757 2.8648 5.63924 3.26893L5.64039 3.82138H5.74682C5.91691 3.82211 6.08473 3.79055 6.24668 3.73851C6.33807 3.70914 6.43376 3.69412 6.5305 3.69454L6.53739 3.69457C6.85346 3.69593 7.10861 3.95639 7.10729 4.27633L7.10666 4.93424C7.10649 5.06293 7.23343 5.15327 7.35496 5.11093L7.7026 4.98986C7.83201 4.94481 7.9187 4.82277 7.9187 4.68574V3.62783C7.91867 3.32385 7.67225 3.0774 7.36827 3.0774Z" fill="#756E78"/>
<path d="M4.121 9.88151L3.92867 8.80591C3.89732 8.63065 3.95123 8.45069 4.07411 8.3218C4.36621 8.01542 4.72 7.91382 4.72 7.91382L4.61888 8.17445C4.57133 8.29705 4.58968 8.43547 4.66755 8.54142L5.68117 9.921L4.6113 10.1964C4.38734 10.254 4.16167 10.1091 4.121 9.88151Z" fill="#EFD133"/>
<path d="M7.24375 9.88151L7.43608 8.80591C7.46744 8.63065 7.41352 8.45069 7.29065 8.3218C6.99855 8.01542 6.64476 7.91382 6.64476 7.91382L6.74588 8.17445C6.79343 8.29705 6.77508 8.43547 6.69721 8.54142L5.68359 9.921L6.75346 10.1964C6.97742 10.254 7.20305 10.1091 7.24375 9.88151Z" fill="#EFD133"/>
<path d="M14.5733 2.57747C13.5162 1.97392 11.8603 1.92821 11.1631 1.93871C10.9818 1.94142 10.8364 2.08943 10.8364 2.27084V7.32087C10.8364 7.50636 10.9883 7.65558 11.1738 7.65301C11.8409 7.64366 13.3552 7.68662 14.4069 8.20379C14.6165 8.30686 14.8604 8.30543 15.0701 8.20254C16.4542 7.52342 18.6364 7.66389 18.6381 7.66424C18.6381 7.66424 18.6381 7.66424 18.6381 7.6642V2.27084C18.6381 2.08943 18.4928 1.94142 18.3114 1.93871C17.6144 1.92824 15.9592 1.97388 14.902 2.57702C14.8 2.63517 14.6753 2.63566 14.5733 2.57747Z" fill="#DDDDDD"/>
<path d="M11.1631 1.93871C10.9818 1.94142 10.8364 2.08943 10.8364 2.27085V7.32087C10.8364 7.50636 10.9883 7.65558 11.1738 7.65301C11.8404 7.64366 13.3528 7.68656 14.4044 8.20254C14.5097 8.2542 14.6235 8.28002 14.7373 8.28002V2.62075C14.6804 2.62075 14.6236 2.60615 14.5725 2.57698C13.5153 1.97388 11.8601 1.92821 11.1631 1.93871Z" fill="#F7F4F7"/>
<path d="M13.7273 3.4143C13.1954 3.26747 12.5726 3.17622 11.8761 3.14313C11.7326 3.13621 11.6102 3.24738 11.6033 3.39118C11.5965 3.53499 11.7075 3.65714 11.8514 3.66398C13.0618 3.72151 13.5397 3.92639 13.6581 3.92639C13.7725 3.92639 13.8774 3.85058 13.9093 3.735C13.9476 3.59616 13.8661 3.4526 13.7273 3.4143Z" fill="black"/>
<path d="M13.7273 4.66598C13.1953 4.51912 12.5724 4.42791 11.8761 4.39481C11.7326 4.38818 11.6102 4.49903 11.6033 4.64287C11.5965 4.78671 11.7076 4.90882 11.8514 4.91567C13.0616 4.97316 13.5397 5.17808 13.6581 5.17808C13.7725 5.17808 13.8774 5.10223 13.9093 4.98665C13.9476 4.84785 13.8661 4.70425 13.7273 4.66598Z" fill="black"/>
<path d="M13.7273 6.04542C13.1953 5.89856 12.5724 5.80734 11.8761 5.77425C11.7326 5.76709 11.6102 5.87846 11.6033 6.0223C11.5965 6.16615 11.7076 6.28826 11.8514 6.29511C13.0616 6.3526 13.5397 6.55752 13.6581 6.55752C13.7725 6.55752 13.8774 6.48167 13.9093 6.36609C13.9476 6.22729 13.8661 6.08369 13.7273 6.04542Z" fill="black"/>
<path d="M17.5866 3.14311C16.8901 3.17623 16.2673 3.26744 15.7353 3.41427C15.5965 3.45258 15.5151 3.59614 15.5534 3.73494C15.5853 3.85052 15.6902 3.92633 15.8046 3.92633C15.9333 3.92633 16.3967 3.72163 17.6113 3.66392C17.7552 3.65708 17.8662 3.53496 17.8594 3.39112C17.8525 3.24728 17.7303 3.13647 17.5866 3.14311Z" fill="black"/>
<path d="M17.5866 4.39478C16.8902 4.42788 16.2674 4.51909 15.7353 4.66595C15.5965 4.70426 15.5151 4.84782 15.5534 4.98662C15.5853 5.10223 15.6902 5.17805 15.8046 5.17805C15.9333 5.17805 16.3969 4.97334 17.6113 4.91564C17.7551 4.90879 17.8662 4.78668 17.8594 4.64284C17.8525 4.499 17.7308 4.38853 17.5866 4.39478Z" fill="black"/>
<path d="M16.666 5.85794C16.331 5.90435 16.0178 5.96744 15.7353 6.04544C15.5965 6.08375 15.5151 6.22731 15.5534 6.36611C15.5853 6.48169 15.6902 6.5575 15.8046 6.5575C15.9079 6.5575 16.0743 6.46632 16.7376 6.37442C16.8802 6.35467 16.9798 6.22303 16.9601 6.08041C16.9403 5.93779 16.8088 5.8383 16.666 5.85794Z" fill="black"/>
<path d="M17.6115 8.65537C17.4675 8.65537 17.3508 8.77209 17.3508 8.91607V12.4356H10.2669V11.514C10.2669 9.96425 9.16231 8.6268 7.64042 8.3339L7.61272 8.32858C7.57765 8.26104 7.53322 8.19799 7.47976 8.14188C7.2396 7.88997 6.96332 7.7566 6.81806 7.69893C6.91062 7.63865 7.00044 7.57091 7.08707 7.49478C7.43022 7.1932 7.65242 6.76714 7.71596 6.30023C7.98122 6.24374 8.18036 6.0057 8.17921 5.72272L8.17772 5.02438C8.17747 4.96792 8.16885 4.9121 8.15283 4.85839C8.16993 4.8034 8.17925 4.74539 8.17925 4.68574V3.6278C8.17925 3.48319 8.14052 3.34773 8.07392 3.23007H9.63756C9.78154 3.23007 9.89827 3.11334 9.89827 2.96936C9.89827 2.82538 9.78154 2.70866 9.63756 2.70866H7.40266C7.31941 2.3493 6.99752 2.08032 6.61321 2.08032H4.86127C4.33385 2.08032 3.86295 2.32601 3.55618 2.70866H2.4224C1.69381 2.70866 1.10107 3.30139 1.10107 4.02998V13.532C1.10107 14.2606 1.69381 14.8533 2.4224 14.8533H7.77696L7.64578 15.8606H7.26793C6.50177 15.8606 5.87844 16.484 5.87844 17.2501C5.87844 17.6636 6.21482 17.9999 6.62826 17.9999H12.041C12.4545 17.9999 12.7908 17.6636 12.7908 17.2501C12.7908 16.484 12.1675 15.8606 11.4014 15.8606H11.0235L10.8923 14.8533H16.5508C17.2794 14.8533 17.8722 14.2606 17.8722 13.532V8.91607C17.8722 8.77209 17.7555 8.65537 17.6115 8.65537ZM6.9077 8.69576C6.9676 8.61425 7.00653 8.52199 7.02356 8.42619C7.05019 8.44952 7.0766 8.47465 7.10236 8.50166C7.16757 8.57007 7.19653 8.66663 7.17984 8.76L6.98751 9.8356C6.97354 9.91381 6.89592 9.96383 6.81885 9.94391L6.12239 9.76462L6.9077 8.69576ZM4.87782 8.38705C4.85258 8.35271 4.84671 8.30849 4.86214 8.26873L4.96323 8.00809C4.97515 7.97733 4.9804 7.94524 4.98033 7.91337C5.45985 8.08832 5.94615 8.074 6.38501 7.91542C6.38518 7.9466 6.3904 7.97799 6.40207 8.00809L6.50319 8.26876C6.51863 8.30849 6.51275 8.35271 6.48752 8.38705L5.68267 9.48246L4.87782 8.38705ZM5.24298 9.76462L4.54652 9.94391C4.46952 9.96379 4.39187 9.91388 4.37786 9.8356L4.18553 8.76C4.16884 8.66663 4.1978 8.57007 4.26301 8.50169C4.28877 8.47468 4.31518 8.44955 4.34181 8.42623C4.35881 8.52203 4.39774 8.61428 4.45767 8.6958L5.24298 9.76462ZM7.5951 5.79151L7.4727 5.79203C7.33088 5.79266 7.21558 5.9065 7.21314 6.04829C7.20609 6.46215 7.03465 6.84663 6.74283 7.10313C6.12051 7.65019 5.2695 7.65774 4.63811 7.11213C4.34417 6.8581 4.16957 6.47511 4.15904 6.06136C4.15542 5.91957 4.03932 5.80642 3.89729 5.80725L3.7749 5.80778C3.77483 5.80778 3.77472 5.80778 3.77462 5.80778C3.75401 5.80778 3.73979 5.79783 3.73145 5.78949C3.72411 5.78216 3.71181 5.7661 3.7117 5.7417L3.7107 5.2815L3.9276 5.357C4.06432 5.40466 4.21639 5.38293 4.33434 5.29898C4.45231 5.215 4.52257 5.07846 4.52236 4.93379L4.52159 4.27514C4.52086 4.09946 4.66004 3.9559 4.83207 3.95517L4.83875 3.95514C4.90764 3.95469 4.97581 3.96543 5.04172 3.9866C5.44223 4.11531 5.92238 4.11639 6.32623 3.9866C6.39217 3.96539 6.46172 3.95451 6.52902 3.9551L6.53608 3.95514C6.7079 3.95587 6.84712 4.09939 6.84639 4.27594L6.84572 4.93379C6.84555 5.07857 6.91584 5.21507 7.03378 5.29902C7.15214 5.38324 7.30436 5.40448 7.44048 5.357L7.6568 5.28167L7.65777 5.72425C7.65794 5.7612 7.62982 5.79137 7.5951 5.79151ZM3.71021 3.75276C3.71021 3.1181 4.22654 2.60177 4.86124 2.60177H6.61318C6.77294 2.60177 6.90291 2.73174 6.90291 2.8915C6.90291 3.13774 7.10327 3.3381 7.34951 3.3381H7.36807C7.52783 3.3381 7.6578 3.46807 7.6578 3.62783V4.68574C7.6578 4.71181 7.64126 4.73506 7.61665 4.74365L7.36727 4.83048L7.36783 4.27737C7.36978 3.81422 6.99766 3.43581 6.53854 3.43383L6.53149 3.4338C6.52982 3.4338 6.52819 3.4338 6.52652 3.4338C6.40447 3.4338 6.28347 3.45281 6.16678 3.49028C5.8701 3.58556 5.49812 3.58567 5.20127 3.49028C5.08301 3.45229 4.95999 3.43303 4.83639 3.4338L4.82968 3.43383C4.37035 3.43581 3.99824 3.81422 4.00018 4.2766L4.00084 4.83048L3.75137 4.74361C3.72644 4.73492 3.71021 4.71111 3.71021 4.6857V3.75276ZM1.62248 4.02998C1.62248 3.5889 1.98132 3.23007 2.4224 3.23007H3.27289C3.21859 3.39462 3.1888 3.57023 3.1888 3.75276V4.6857C3.1888 4.74737 3.19857 4.80736 3.21682 4.86402C3.19829 4.92225 3.18856 4.98322 3.1888 5.04513L3.19029 5.74343C3.19095 5.89996 3.25196 6.04703 3.36208 6.15757C3.44446 6.24027 3.5469 6.29516 3.65835 6.31768C3.72585 6.78396 3.95155 7.208 4.29714 7.50667C4.379 7.57741 4.46365 7.64081 4.55065 7.69757C4.40629 7.75455 4.12758 7.8881 3.88561 8.14188C3.83198 8.19813 3.78745 8.26139 3.75234 8.32914C3.73141 8.33804 2.44016 8.49422 1.62248 9.75509V4.02998ZM1.62248 11.514C1.62248 10.265 2.47794 9.18074 3.67722 8.87944L3.86462 9.92737C3.93184 10.3033 4.30545 10.5443 4.67649 10.4488L5.68267 10.1898L6.68885 10.4488C7.05999 10.5443 7.43353 10.3031 7.50072 9.92737L7.68822 8.87874C8.88882 9.17914 9.74546 10.264 9.74546 11.514V12.4356H8.66298V11.2999C8.66298 11.1559 8.54625 11.0392 8.40227 11.0392C8.25829 11.0392 8.14157 11.1559 8.14157 11.2999V12.4356H3.22638V11.2999C3.22638 11.1559 3.10965 11.0392 2.96567 11.0392C2.82169 11.0392 2.70497 11.1559 2.70497 11.2999V12.4356H1.62248V11.514ZM11.4014 16.3821C11.88 16.3821 12.2695 16.7715 12.2695 17.2501C12.2695 17.3761 12.167 17.4786 12.0411 17.4786H6.62826C6.50229 17.4786 6.39985 17.3761 6.39985 17.2501C6.39985 16.7715 6.78927 16.3821 7.26793 16.3821H11.4014ZM8.17157 15.8607L8.30275 14.8533H10.3666L10.4977 15.8607H8.17157ZM17.3508 13.532C17.3508 13.9731 16.9919 14.3319 16.5509 14.3319H2.4224C1.98132 14.3319 1.62248 13.9731 1.62248 13.532V12.957H17.3508V13.532Z" fill="black"/>
<path d="M18.3153 1.67793C17.6228 1.66764 15.8916 1.71217 14.7728 2.35044C14.7502 2.36334 14.7233 2.36278 14.7026 2.35096C13.5839 1.71224 11.8521 1.66767 11.1592 1.67793C10.8375 1.68276 10.5757 1.94868 10.5757 2.27074V7.32076C10.5757 7.6536 10.8486 7.91893 11.1774 7.91357C11.7765 7.90544 13.2788 7.93943 14.2919 8.43762C14.5718 8.57524 14.8972 8.57761 15.1849 8.43648C16.2074 7.93478 17.7222 7.90405 18.326 7.91416C18.6418 7.91917 18.8988 7.66531 18.8988 7.35035V2.27074C18.8988 1.94864 18.637 1.68272 18.3153 1.67793ZM14.4766 7.94816C13.5257 7.49683 12.2183 7.37781 11.1701 7.3922C11.1334 7.39411 11.0971 7.36303 11.0971 7.32076V2.27074C11.0971 2.23191 11.1285 2.19986 11.1671 2.19927C11.8171 2.18964 13.4371 2.22881 14.4441 2.80376C14.4548 2.80984 14.4656 2.81551 14.4766 2.82089V7.94816ZM18.3774 7.35031C18.3774 7.37221 18.3614 7.39182 18.3347 7.39279C16.4773 7.36161 15.4075 7.75506 14.9979 7.94788V2.82082C15.0091 2.81537 15.0202 2.80956 15.0311 2.80334C16.0383 2.22881 17.658 2.18967 18.3074 2.19927C18.346 2.19986 18.3774 2.23191 18.3774 2.27074V7.35031H18.3774Z" fill="black"/>
</svg>
