<svg width="98" height="65" viewBox="0 0 98 65" fill="none" xmlns="http://www.w3.org/2000/svg">
<path fill-rule="evenodd" clip-rule="evenodd" d="M52.3945 40.1651C55.2188 37.2383 59.1377 35.8189 62.4983 33.6514C65.8589 31.6269 69.3728 29.8994 72.9524 28.337C79.7174 25.4323 86.1103 21.7353 92.8315 18.7536C93.97 18.2805 95.0756 17.5323 96.3673 17.6643C96.7614 17.6973 97.1226 17.8293 97.4729 17.9504C97.2759 18.3795 97.0679 18.8086 96.7285 19.1497C96.3673 19.5458 95.8966 19.8539 95.393 20.0629C93.6416 20.7891 91.9339 21.6473 90.2153 22.4615C87.599 23.6608 85.0594 25.0032 82.476 26.2685C77.747 28.5351 72.9305 30.6256 68.2015 32.9142C63.0456 35.4999 58.3824 39.6259 52.4493 40.1871C52.4602 40.1871 52.3945 40.2091 52.3945 40.1651Z" fill="#002B46"/>
<path fill-rule="evenodd" clip-rule="evenodd" d="M53.2491 39.5381C51.3881 39.5491 50.0636 38.0637 48.5858 37.1395C47.0423 36.0282 45.477 34.9389 43.8349 33.9817C36.3365 29.3165 28.9475 24.4422 21.3614 19.9201C15.9538 16.7843 10.371 13.9455 5.03996 10.6667C4.16423 10.1496 3.28849 9.63243 2.41276 9.1043C1.6246 8.58716 0.694134 8.14705 0.190588 7.29983C-0.488106 6.05652 0.781708 5.14328 1.86543 4.8352C2.9382 4.4171 4.21896 3.92197 5.20416 3.51486C7.55769 2.59063 9.91123 1.65539 12.2867 0.76416H17.1908C14.9905 1.77642 12.6698 2.56862 10.4586 3.54787C7.76568 4.63715 5.08375 5.85846 2.40181 6.93674C8.14882 10.8757 14.5198 13.7035 20.4638 17.2904C27.3274 21.3284 34.0705 25.5535 40.8575 29.7346C44.7764 31.9681 48.5201 34.3998 52.3186 36.8094C53.2491 37.3815 53.9497 38.3058 54.3438 39.329C54.0154 39.4831 53.6213 39.5381 53.2491 39.5381Z" fill="#002B46"/>
<path fill-rule="evenodd" clip-rule="evenodd" d="M93.631 17.5435C91.2446 16.1571 88.9568 14.5947 86.6142 13.1423C82.5202 10.7107 78.5575 8.09204 74.551 5.51738C72.2194 3.84495 69.7564 2.39258 67.37 0.830177C67.3372 0.808171 67.3043 0.786166 67.2715 0.76416H70.862C71.3436 1.03923 71.8143 1.3253 72.2741 1.63338C75.5362 3.74593 78.864 5.75944 82.1699 7.80597C85.2787 9.8635 88.5517 11.646 91.6715 13.6705C93.3026 14.8588 95.7437 15.4969 96.2582 17.7085C95.3824 17.9396 94.4739 17.9286 93.631 17.5435Z" fill="#002B46"/>
<path fill-rule="evenodd" clip-rule="evenodd" d="M21.2629 40.011C20.3215 38.3826 21.0002 36.5782 21.3615 34.8837C21.7884 32.9032 22.2919 30.9557 22.7736 29.0082C23.3647 26.3565 23.9996 23.5508 25.7292 21.4052C25.8715 21.3942 25.773 21.5923 25.7839 21.6693C25.7839 21.6803 25.773 21.6693 25.773 21.6583C25.8277 25.3663 24.9848 29.0302 24.0543 32.5731C23.7369 33.8605 23.4523 35.1588 23.1677 36.4571C22.9487 37.8325 22.478 39.2519 21.2629 40.011Z" fill="#002B46"/>
<path fill-rule="evenodd" clip-rule="evenodd" d="M65.2798 54.0176C64.5573 52.2571 65.3345 50.4857 65.838 48.7913C66.3416 47.1188 66.8232 45.4464 67.3706 43.785C69.0783 38.9437 70.0963 33.5854 73.3912 29.5474C72.9753 35.0598 70.7093 40.121 69.1439 45.3914C68.6075 47.0748 68.0164 48.7472 67.48 50.4417C67.075 51.817 66.5386 53.2254 65.2798 54.0176Z" fill="#002B46"/>
<path fill-rule="evenodd" clip-rule="evenodd" d="M49.8446 56.9115C44.0538 56.5264 38.2958 55.1621 32.9758 52.8075C29.4838 51.2451 26.364 48.8795 23.6054 46.2388C21.5694 44.3903 20.3433 41.5296 21.4599 38.8449C21.5037 38.6909 22.0072 37.4036 21.9853 37.9097C22.9705 43.3011 25.2365 45.0505 29.3086 48.2413C35.7015 52.9835 44.7872 55.052 52.6031 55.096C55.4383 55.03 58.3173 54.6889 60.9773 53.6547C62.488 53.1596 63.8782 52.3563 65.4654 52.1583C65.4873 52.1583 65.5202 52.1363 65.5311 52.1473C65.5311 52.1803 65.5311 52.2133 65.5311 52.2353C65.6296 54.5459 62.5755 55.129 60.8569 55.6792C57.354 56.9555 53.5445 57.0655 49.8446 56.9115Z" fill="#002B46"/>
<path fill-rule="evenodd" clip-rule="evenodd" d="M89.1871 48.0982C88.0705 47.6251 87.7093 46.0957 88.1909 45.0504C88.6507 44.0602 89.6797 43.521 90.6649 43.1799C91.9347 38.4267 93.292 33.7835 94.2663 29.0083C95.0326 25.8505 95.3828 22.6267 95.4595 19.3809C95.4485 18.5997 95.6237 17.7304 95.2843 17.0042C95.2624 17.0042 95.2405 17.0262 95.2405 17.0373C95.1967 17.0813 95.1749 17.1583 95.142 17.1803C95.1201 16.7622 95.3281 16.5971 95.7112 16.8612C96.3133 17.2793 96.6636 18.0055 96.9263 18.6877C98.3822 22.4396 96.8387 27.1929 96.0834 31.0218C95.4047 34.1796 94.5947 37.3485 93.7956 40.4402C93.8175 40.3632 93.8175 40.3522 93.8284 40.2862C93.511 41.4525 93.3249 42.6738 92.9089 43.8071C93.5548 44.2472 93.8065 45.1164 93.6314 45.8646C93.2373 47.7021 90.8619 48.7914 89.1871 48.0982ZM90.3365 46.0077C90.7086 45.9417 91.0699 45.7436 91.2888 45.4355C90.9495 45.5676 90.5663 45.7106 90.3365 46.0077Z" fill="#002B46"/>
<path fill-rule="evenodd" clip-rule="evenodd" d="M87.0637 64.2724C86.2755 63.9423 86.4944 62.842 86.5492 62.2038C86.6586 61.2136 86.8557 60.2233 87.0418 59.2331C87.3702 57.5276 87.6876 55.8112 88.0489 54.1058C87.4249 55.7342 86.79 57.3626 86.2646 59.035C86.0018 59.8382 85.8376 60.6855 85.4436 61.4447C85.148 61.9728 84.3708 62.0278 83.9439 61.6537C83.0572 60.7075 83.8016 59.2551 84.1518 58.2208C85.761 54.0838 86.9651 49.6056 89.3843 45.8867C89.5923 45.5676 89.7894 45.2375 90.0302 44.9404C90.1506 44.8744 90.0849 45.1715 90.1068 45.2265C90.7089 44.8304 91.5518 45.2815 91.5956 45.9857C91.6503 46.3928 91.497 46.8109 91.4204 47.196C91.913 48.3843 91.6393 49.8147 91.2781 50.97C90.8074 52.8735 90.3695 54.7879 89.9645 56.7024C89.5376 58.6829 89.2092 60.6745 88.7275 62.644C88.5852 63.4692 88.0926 64.7235 87.0637 64.2724Z" fill="#002B46"/>
<path fill-rule="evenodd" clip-rule="evenodd" d="M24.8419 46.7778C24.5245 46.7448 24.2508 46.4257 24.3165 46.1067C24.4588 45.3035 24.6011 44.5002 24.7324 43.7741C25.1594 41.2434 25.7833 38.8778 26.0351 36.3802C26.0351 35.9291 26.4839 35.665 26.8671 35.808C27.5458 36.1161 27.1736 36.9963 27.1298 37.5575C27.0203 38.2727 26.878 39.0429 26.7467 39.725C26.4073 41.5515 26.0461 43.367 25.7067 45.1384C25.5316 45.7216 25.6848 46.8218 24.8419 46.7778Z" fill="#002B46"/>
<path fill-rule="evenodd" clip-rule="evenodd" d="M27.9295 49.0115C27.6121 48.9345 27.426 48.6044 27.4916 48.2853C28.0609 45.7106 28.5644 43.114 29.3197 40.5833C29.4292 39.7031 30.688 39.8571 30.5238 40.7373C29.8561 43.169 29.3307 45.6336 28.7724 48.0873C28.6958 48.5494 28.5316 49.1435 27.9295 49.0115Z" fill="#002B46"/>
</svg>
