<svg width="34" height="52" viewBox="0 0 34 52" fill="none" xmlns="http://www.w3.org/2000/svg">
<path fill-rule="evenodd" clip-rule="evenodd" d="M28.2708 0.791953C28.8148 0.915764 29.1487 1.66385 29.4613 2.07977C31.4419 5.02004 31.8637 8.56939 32.6658 11.8811C32.8662 12.9355 33.3185 13.9761 33.2077 15.0737C32.8238 17.3668 30.1406 17.4406 28.3016 17.5034C25.7254 17.5755 23.141 17.7173 20.5664 17.6944C21.054 21.0368 22.8055 24.0252 24.2983 27.0023C24.7176 27.7679 24.9798 28.7516 24.4796 29.5486C23.4348 31.1276 21.2603 30.5373 19.6688 30.5198C17.0255 30.3397 14.3711 30.0679 11.7228 29.9701C12.1631 32.9333 13.0241 35.8102 13.8065 38.6947C14.3276 40.6494 15.9906 43.8104 12.9189 44.3944C9.66433 44.5951 6.45268 43.5948 3.24266 43.2564C3.51354 45.8867 4.66088 48.1728 5.52637 50.5619L5.54654 50.6376L3.30069 51.2424L3.27134 51.1827C2.37043 48.5599 1.18004 45.961 0.868819 43.1793C0.730307 39.9862 3.45461 40.6717 5.59121 41.0695C7.73272 41.3848 9.8653 41.9188 12.0299 41.917C11.3725 39.3502 10.6683 36.8096 10.0109 34.2428C9.66977 32.3072 7.75558 28.2542 10.54 27.4503C11.5982 27.2328 12.6887 27.4393 13.7547 27.5036C16.4266 27.6896 19.1036 27.9959 21.7944 28.001C20.9544 25.2536 15.2735 16.4031 19.4746 14.9608C20.337 14.715 21.2659 14.8703 22.1478 14.8491C24.8671 14.8601 27.6451 14.9905 30.3413 14.5617C30.0005 11.5177 29.1085 8.67615 28.6239 5.69792C28.3836 4.14067 28.5765 2.49376 28.2518 0.972786C28.2031 0.891269 28.1086 0.889703 28.0174 0.900743C28.0792 0.830026 28.1922 0.799615 28.2708 0.791953Z" fill="#002B46"/>
</svg>
