<svg width="62" height="59" viewBox="0 0 62 59" fill="none" xmlns="http://www.w3.org/2000/svg">
<path fill-rule="evenodd" clip-rule="evenodd" d="M26.6483 42.9089C24.6079 40.031 23.637 36.5908 22.2219 33.4152C20.6915 30.0411 19.5067 26.5016 18.9473 22.8298C19.1447 21.9201 20.6751 24.0702 20.9877 24.3183C23.456 22.4494 26.6483 23.4417 29.4786 23.4914C32.2102 23.6071 34.9418 23.5741 37.6733 23.3756C40.1581 23.3425 44.7162 22.5321 46.6414 24.2522C48.5338 26.3031 46.0655 28.2713 44.6175 29.6441C41.6884 32.5386 38.8087 35.4992 35.7645 38.2778C33.5924 39.9814 29.3799 45.7041 26.6483 42.9089ZM28.9191 39.7499C33.6912 35.7142 37.9202 31.0665 42.4289 26.7497C36.9493 26.8985 31.5684 27.494 26.0559 26.9151C24.7395 26.8655 23.3902 26.7166 22.2383 26.0054C25.1344 30.2395 26.5496 35.2511 28.9191 39.7499Z" fill="#002B46"/>
<path fill-rule="evenodd" clip-rule="evenodd" d="M26.3848 57.6622C23.3406 57.1164 20.4609 56.0083 17.6635 54.7182C11.8877 52.3695 6.32584 48.6812 3.24871 43.0743C-0.404354 36.8719 -0.881557 29.1479 1.3399 22.3832C2.68923 18.579 4.28539 14.6095 7.37898 11.9136C8.08655 7.97714 14.2737 5.26464 17.5812 3.70991C22.1887 1.77478 27.2405 1.11319 32.1935 0.832017C34.7276 0.765859 37.2288 1.22897 39.7135 1.70862C42.1983 2.20481 44.6666 2.78369 46.9868 3.80915C49.3069 4.88423 51.693 5.94277 53.6676 7.59673C56.0371 9.69726 58.0776 12.2609 59.575 15.0726C61.8458 19.5549 62.1585 24.831 61.4015 29.7433C60.8914 32.5054 59.9535 35.0856 58.9991 37.6658C56.07 44.629 51.0676 50.6659 44.7817 54.8339C39.3186 58.1584 32.5884 59.1673 26.3848 57.6622ZM33.6086 55.7436C39.3186 55.297 43.8932 53.1965 48.0234 49.2105C56.9586 41.073 63.2116 25.2445 55.889 14.2787C52.96 9.74688 48.7968 7.18324 43.7615 5.54581C39.4667 4.17302 34.9415 3.19719 30.4163 3.4949C24.4431 4.07379 18.3053 5.39696 13.27 8.78758C11.4928 9.89574 10.2422 11.6655 8.5473 12.7902C7.59289 14.5434 6.90177 16.4124 5.99674 18.1986C-0.782825 31.2153 3.10061 45.3402 16.742 51.4764C21.9912 53.9904 27.7177 56.0413 33.6086 55.7436Z" fill="#002B46"/>
</svg>
