<svg width="31" height="33" viewBox="0 0 31 33" fill="none" xmlns="http://www.w3.org/2000/svg">
<path fill-rule="evenodd" clip-rule="evenodd" d="M1.2065 32.6594C0.826501 32.4584 0.726501 31.8352 0.576501 31.4633C-0.3135 28.8801 0.0765005 26.1562 0.136501 23.5328C0.196501 22.7086 0.0665005 21.8442 0.366501 21.0502C1.1065 19.4219 3.1165 19.9043 4.4965 20.226C6.4265 20.6883 8.3765 21.1004 10.2865 21.6332C10.5865 19.05 9.8765 16.4769 9.3565 13.964C9.1965 13.3107 9.1965 12.5267 9.7265 12.0342C10.8165 11.0693 12.3165 11.9437 13.4965 12.2754C15.4265 12.9388 17.3465 13.6726 19.2965 14.2756C19.5565 11.9839 19.4865 9.67215 19.4765 7.37041C19.4765 5.81247 18.8665 3.12878 21.2665 3.3097C23.7265 3.81227 25.9165 5.19934 28.2365 6.0939C28.5565 4.08365 28.1565 2.15381 27.9865 0.203862V0.143555H29.7765L29.7865 0.193811C29.9365 2.32468 30.3065 4.49575 29.9865 6.62662C29.4565 9.02887 27.5665 7.97349 26.0565 7.2498C24.5265 6.58642 23.0465 5.76221 21.4365 5.33001C21.4165 7.37041 21.4365 9.40077 21.4165 11.4412C21.2865 12.9489 21.9065 16.3462 19.6765 16.3864C18.8465 16.3361 18.0765 15.9642 17.2965 15.7029C15.3465 15.0295 13.4165 14.2656 11.4165 13.7228C11.4965 15.9341 13.9665 23.6535 10.5565 23.8846C9.8665 23.8947 9.2065 23.5932 8.5465 23.4323C6.5265 22.8795 4.4865 22.2262 2.3965 22.0051C2.0465 24.3369 2.1465 26.6286 1.9165 28.9404C1.7865 30.1466 1.3165 31.3326 1.2565 32.5287C1.2765 32.5991 1.3465 32.6192 1.4165 32.6292C1.3565 32.6694 1.2665 32.6694 1.2065 32.6594Z" fill="#002B46"/>
</svg>
