<svg width="33" height="52" viewBox="0 0 33 52" fill="none" xmlns="http://www.w3.org/2000/svg">
<path fill-rule="evenodd" clip-rule="evenodd" d="M27.6106 0.994003C28.1546 1.11781 28.4885 1.8659 28.8011 2.28182C30.7818 5.2221 31.2035 8.77146 32.0057 12.0832C32.2061 13.1376 32.6583 14.1782 32.5475 15.2758C32.1637 17.5689 29.4804 17.6427 27.6414 17.7055C25.0653 17.7776 22.4808 17.9194 19.9063 17.8965C20.3939 21.2389 22.1453 24.2273 23.6382 27.2044C24.0575 27.97 24.3197 28.9537 23.8194 29.7507C22.7746 31.3297 20.6001 30.7394 19.0087 30.722C16.3653 30.5418 13.7109 30.27 11.0626 30.1723C11.5029 33.1354 12.364 36.0123 13.1464 38.8968C13.6675 40.8515 15.3304 44.0125 12.2587 44.5965C9.00417 44.7972 5.79252 43.7969 2.5825 43.4585C2.85338 46.0888 4.00072 48.375 4.86621 50.7641L4.88638 50.8397L2.64054 51.4446L2.61118 51.3849C1.71027 48.7621 0.51988 46.1631 0.208658 43.3815C0.0701463 40.1884 2.79446 40.8739 4.93105 41.2716C7.07257 41.5869 9.20514 42.1209 11.3697 42.1192C10.7123 39.5524 10.0082 37.0117 9.35079 34.4449C9.00961 32.5094 7.09541 28.4564 9.87986 27.6524C10.938 27.435 12.0285 27.6414 13.0946 27.7057C15.7664 27.8917 18.4434 28.198 21.1343 28.2031C20.2943 25.4558 14.6134 16.6052 18.8144 15.1628C19.6768 14.9171 20.6057 15.0724 21.4876 15.0511C24.2069 15.0622 26.985 15.1925 29.6812 14.7637C29.3403 11.7197 28.4484 8.87822 27.9637 5.89998C27.7234 4.34273 27.9164 2.69582 27.5916 1.17484C27.543 1.09332 27.4484 1.09175 27.3572 1.10279C27.4191 1.03208 27.532 1.00166 27.6106 0.994003Z" fill="#FFA100"/>
</svg>
