<svg width="31" height="33" viewBox="0 0 31 33" fill="none" xmlns="http://www.w3.org/2000/svg">
<path fill-rule="evenodd" clip-rule="evenodd" d="M1.2065 32.7058C0.826501 32.5048 0.726501 31.8816 0.576501 31.5097C-0.3135 28.9265 0.0765005 26.2026 0.136501 23.5792C0.196501 22.755 0.0665005 21.8906 0.366501 21.0966C1.1065 19.4683 3.1165 19.9507 4.4965 20.2724C6.4265 20.7347 8.3765 21.1468 10.2865 21.6795C10.5865 19.0964 9.8765 16.5232 9.3565 14.0104C9.1965 13.3571 9.1965 12.5731 9.7265 12.0806C10.8165 11.1157 12.3165 11.9901 13.4965 12.3218C15.4265 12.9852 17.3465 13.7189 19.2965 14.322C19.5565 12.0303 19.4865 9.71854 19.4765 7.4168C19.4765 5.85885 18.8665 3.17517 21.2665 3.35609C23.7265 3.85865 25.9165 5.24573 28.2365 6.14029C28.5565 4.13004 28.1565 2.20019 27.9865 0.250249V0.189941H29.7765L29.7865 0.240198C29.9365 2.37107 30.3065 4.54214 29.9865 6.67301C29.4565 9.07526 27.5665 8.01988 26.0565 7.29619C24.5265 6.6328 23.0465 5.8086 21.4365 5.37639C21.4165 7.4168 21.4365 9.44716 21.4165 11.4876C21.2865 12.9953 21.9065 16.3926 19.6765 16.4328C18.8465 16.3825 18.0765 16.0106 17.2965 15.7493C15.3465 15.0759 13.4165 14.312 11.4165 13.7692C11.4965 15.9805 13.9665 23.6999 10.5565 23.931C9.8665 23.9411 9.2065 23.6395 8.5465 23.4787C6.5265 22.9259 4.4865 22.2726 2.3965 22.0514C2.0465 24.3833 2.1465 26.675 1.9165 28.9868C1.7865 30.193 1.3165 31.379 1.2565 32.5751C1.2765 32.6455 1.3465 32.6656 1.4165 32.6756C1.3565 32.7158 1.2665 32.7158 1.2065 32.7058Z" fill="#FFA100"/>
</svg>
