<svg width="111" height="93" viewBox="0 0 111 93" fill="none" xmlns="http://www.w3.org/2000/svg">
<path fill-rule="evenodd" clip-rule="evenodd" d="M18.1723 92.3842C16.1489 92.0218 14.3058 89.988 15.0671 87.8536C15.5279 87.9744 16.0087 88.1355 16.4895 88.1758C12.9436 86.4843 10.82 82.9001 9.35758 79.3763C7.25408 74.5637 5.67144 69.5498 4.06877 64.5359C3.0671 61.3746 2.18563 58.1326 1.7449 54.8102C1.10383 51.5481 1.88513 48.1049 4.54957 46.0107C7.49448 43.5541 11.4411 42.7688 15.027 41.7016C20.3559 40.3122 25.6447 38.7416 30.9335 37.2112C37.8851 34.8352 45.2574 32.6 51.4677 28.7339C54.0921 27.123 55.1739 24.1429 55.6147 21.2231C56.2557 18.2027 56.1355 14.9809 57.3976 12.1216C60.3425 6.86608 66.8734 5.39614 72.1823 3.6443C76.1889 2.39586 80.2958 1.53001 84.4627 1.14742C86.446 0.925924 88.4694 0.744699 90.3926 1.42933C94.0387 2.85899 95.421 7.24867 96.7231 10.5309C99.8484 19.0686 101.952 27.9486 104.536 36.6675C105.959 41.5606 107.802 46.3127 109.444 51.1253C110.166 53.2597 110.767 55.233 110.967 57.3473C111.488 63.2472 105.618 66.7308 101.151 69.1672C96.5428 71.8252 91.6146 73.8187 86.5462 75.3893C79.8751 77.7452 73.1839 79.9803 66.2724 81.4503C59.8417 83.0612 53.4711 84.954 47.0003 86.3635C41.6113 87.5515 36.4828 88.9007 31.0938 90.0081C26.8467 90.9545 22.5996 92.8272 18.1723 92.3842ZM20.8768 88.0952C27.8284 87.1085 34.219 85.3567 40.9703 83.8263C46.4794 82.6383 51.9886 81.4301 57.4177 79.9602C62.5061 78.5708 67.6547 77.3828 72.7632 76.0337C77.8517 74.5839 82.82 72.7716 87.8283 71.0198C92.3959 69.4693 96.663 67.5765 100.83 65.1803C103.855 63.4284 108.122 60.7906 106.9 56.6828C105.738 52.3737 104.075 48.2257 102.593 44.0374C100.91 39.0839 99.5679 34.0297 98.1656 28.9957C96.6831 23.5187 95.2807 18.0215 93.3776 12.6653C92.3358 10.1281 91.6146 7.16812 89.5312 5.27533C84.8233 3.28185 73.0036 7.53057 67.9753 9.08105C65.6914 9.8865 63.5679 11.0745 61.7649 12.7056C60.9035 13.4103 60.6631 14.5581 60.4427 15.6052C60.0821 17.6792 59.8818 19.7532 59.5011 21.8272C58.5996 30.2441 52.3893 32.9222 45.4778 35.9225C40.6297 37.9764 35.6013 39.6074 30.613 41.3391C24.042 43.4534 17.2708 44.9233 10.6998 47.0578C8.53621 47.8834 5.81167 49.0513 5.59131 51.6891C5.55124 55.6962 6.77328 59.5824 7.89515 63.3882C10.5396 72.0266 13.7649 80.7657 19.0938 88.0952C19.7349 88.1556 20.2958 88.1556 20.8768 88.0952Z" fill="#FFA100"/>
<path fill-rule="evenodd" clip-rule="evenodd" d="M24.6638 41.2988C24.6237 41.2787 24.6437 41.1981 24.6638 41.2586C26.0861 39.849 26.8073 37.7347 27.829 35.9829C28.6304 34.4324 29.4918 32.9222 30.2731 31.3717C30.9943 30.0226 31.0945 28.5124 31.1746 27.0022C31.3749 20.8808 32.0761 17.4979 37.8257 14.4574C42.3131 12.1015 46.9809 9.96704 51.9091 8.77901C55.1144 8.19506 59.041 6.22172 62.066 8.11452C62.5468 8.41656 62.8874 8.85955 63.1678 9.36296C63.1478 9.40323 63.0677 9.40323 63.0476 9.40323C61.1845 10.7523 58.9608 11.2356 56.7171 11.5578C53.031 12.2424 49.5652 13.4103 46.1595 14.9407C42.8741 16.471 38.9876 17.6188 36.6237 20.5184C34.8808 23.6395 35.9425 27.4653 35.1011 30.8482C33.9392 35.5802 29.1713 39.9497 24.6638 41.2988Z" fill="#FFA100"/>
<path fill-rule="evenodd" clip-rule="evenodd" d="M4.67001 51.4674C2.30607 50.1586 1.40457 47.9033 1.0039 45.3259C0.563166 43.1915 0.202565 40.9966 0.282699 38.8219C0.222599 34.8551 2.60657 32.5798 6.23261 31.5931C10.64 30.2842 15.0874 29.1566 19.3945 27.4853C23.6817 25.814 28.3495 23.8407 32.9772 25.1294C30.8136 25.7335 28.8904 27.1632 26.9271 28.3512C24.0423 30.1232 20.8369 31.2508 17.6516 32.3985C14.3261 33.5664 10.8403 34.2108 7.49471 35.3787C5.41124 36.164 4.06901 36.5868 4.16917 39.1441C4.08904 41.2584 4.52977 43.3324 4.95048 45.3863C5.59154 47.3798 5.63161 49.5746 4.67001 51.4674Z" fill="#FFA100"/>
<path fill-rule="evenodd" clip-rule="evenodd" d="M18.293 58.9582C22.3998 56.5821 26.9875 54.4477 31.6753 53.1992C36.944 51.548 42.1928 49.8365 47.5016 48.3464C49.3848 47.6617 51.328 48.1652 53.111 48.9303C53.111 48.9706 53.0308 49.0109 53.0108 49.0511C51.0275 52.3535 47.5417 52.4944 44.1961 53.461C40.9106 54.347 37.6252 55.2531 34.3397 56.1995C29.131 57.7701 23.7821 59.4414 18.293 58.9582Z" fill="#FFA100"/>
<path fill-rule="evenodd" clip-rule="evenodd" d="M24.9043 67.0528C28.35 63.8714 33.0779 62.0591 37.6055 60.851C41.3517 59.7838 45.118 58.7972 48.9243 57.9515C50.9677 57.3877 53.1915 57.146 55.2349 57.7703C54.113 59.0589 52.6706 60.0657 51.0679 60.6094C46.4202 62.3008 41.6322 63.5089 36.9043 64.9587C33.0579 66.3078 29.0111 66.7306 24.9844 67.0125C25.0846 67.0931 24.9444 67.0729 24.9043 67.0528Z" fill="#FFA100"/>
</svg>
