<svg width="68" height="82" viewBox="0 0 68 82" fill="none" xmlns="http://www.w3.org/2000/svg">
<path fill-rule="evenodd" clip-rule="evenodd" d="M16.1825 50.5599C15.4212 50.102 15.7147 49.133 16.0781 48.5036C16.4111 47.8471 16.7529 47.193 17.1338 46.5682C18.467 44.471 19.475 42.1832 20.9456 40.1698C20.5868 39.1117 21.466 38.2708 22.1666 37.6087C23.0149 36.7784 23.9064 35.9974 24.7851 35.1941C28.4294 31.8457 32.0765 28.4508 36.1316 25.6083C38.8582 23.7792 41.4964 21.8227 44.1821 19.9356C45.489 19.039 46.8604 18.254 48.2703 17.5359C49.2534 17.119 50.2254 16.1047 51.3601 16.4641C52.0909 16.7535 52.5095 17.4785 52.9338 18.1107C53.9213 19.6668 54.698 21.3459 55.6989 22.8868C56.2901 23.8465 56.8607 24.5649 57.4016 25.5018C57.9357 26.6067 56.7772 27.4391 56.0222 28.0584C52.2057 30.9929 48.2206 33.7126 44.4234 36.6806C41.8846 38.758 39.3804 40.8823 36.8048 42.9215C34.9258 44.4201 33.0099 45.8806 31.0015 47.1938C30.3551 47.6156 29.7232 48.0886 28.9614 48.272C28.48 48.3889 27.9868 48.4082 27.5179 48.2642C27.6012 47.9845 27.726 47.7253 27.8771 47.4732C28.2674 46.8131 28.8899 46.3754 29.5335 46C30.5304 45.3887 31.411 44.7557 32.3517 44.0727C34.3599 42.618 36.2751 41.0535 38.1862 39.4691C41.854 36.3156 45.5804 33.225 49.5853 30.5011C51.6292 29.0182 53.8245 27.7077 55.7367 26.0481C54.9653 24.9176 54.0829 23.8518 53.4294 22.6301C52.5513 21.1221 51.9376 19.4299 50.8107 18.0818C49.0662 19.1069 47.2655 20.0604 45.5661 21.1635C42.8833 23.0043 40.2286 24.8809 37.52 26.677C33.7254 29.3155 30.2895 32.4082 26.8412 35.441C25.4512 36.7588 23.8851 37.9258 22.6295 39.3739C23.621 40.8084 24.4816 42.3118 25.4088 43.7764C26.0079 44.9552 28.63 47.1458 26.6395 48.1429C24.4121 49.0769 22.0975 49.8083 19.7189 50.249C18.8162 50.4326 17.8978 50.6403 16.9704 50.7042C16.7104 50.7291 16.4246 50.7094 16.1825 50.5599ZM21.2496 42.5719C20.1697 44.8122 18.9061 46.9657 17.6145 49.0835C20.2665 48.6025 22.913 47.7521 25.4431 46.8801C23.9926 45.2287 22.8155 43.3956 21.643 41.5448C21.5236 41.8903 21.3954 42.2334 21.2496 42.5719Z" fill="#002B46"/>
<path fill-rule="evenodd" clip-rule="evenodd" d="M57.9665 28.1245C57.6625 27.9962 57.4016 27.7756 57.2208 27.5009C57.0937 27.3066 57.0351 27.1022 56.9945 26.865C57.667 26.7709 58.3931 26.4741 58.9773 26.2526C59.0464 25.2804 58.6292 24.1595 58.3641 23.3151C57.9204 22.0457 57.4393 20.7757 56.7298 19.6239C55.5822 18.0345 54.342 16.2978 52.5727 15.3915C51.6016 14.9814 51.4486 15.667 51.1385 16.4145C51.0273 16.7999 50.4817 17.5506 50.8712 17.8527C50.0612 17.863 49.8932 15.3368 50.1725 14.7415C50.5523 13.588 51.9649 13.1442 53.026 13.569C54.1321 13.9302 54.9821 14.7987 55.8023 15.6025C56.9191 16.7403 57.922 17.9892 58.6762 19.3981C59.4804 21.1506 61.8524 26.1708 60.2943 27.6985C59.6784 28.2889 58.7406 28.4632 57.9665 28.1245Z" fill="#002B46"/>
<path fill-rule="evenodd" clip-rule="evenodd" d="M59.4967 22.759C59.2973 22.6963 59.1429 22.5702 58.9704 22.477C59.3518 21.673 60.1683 21.2117 60.9844 20.9294C61.9955 20.5483 62.9821 20.0474 63.7848 19.3182C64.8071 18.3268 65.3489 16.7732 65.0348 15.3685C64.878 14.6473 64.5256 14.0626 63.803 13.8132C62.1262 13.0543 60.1732 13.1274 58.4053 13.4952C57.2917 13.8018 56.0161 13.9048 55.1287 14.7058C55.1392 14.7369 55.1673 14.7727 55.1913 14.7885C55.1977 14.7997 55.2655 14.8272 55.2521 14.8425C55.1007 14.8115 54.9424 14.807 54.9474 14.6102C55.3435 13.3951 56.6127 12.6771 57.7243 12.2001C59.3137 11.5488 61.0834 11.6721 62.7392 11.9064C63.8907 12.1666 65.1745 12.5659 65.8861 13.5672C66.9961 15.4768 66.6318 17.993 65.4134 19.7623C64.3694 21.1914 61.3253 23.3697 59.4967 22.759Z" fill="#002B46"/>
<path fill-rule="evenodd" clip-rule="evenodd" d="M24.6044 44.364C25.063 43.0901 26.2586 42.4374 27.3314 41.7519C29.8711 40.0617 32.3418 38.2775 34.802 36.4623C39.1214 33.294 43.3764 30.0143 47.8791 27.1119C50.0644 25.7328 52.2292 24.2538 54.6353 23.2827C54.7194 23.2485 54.8386 23.2237 54.879 23.3194C54.8878 23.3217 54.8855 23.3306 54.8767 23.3282C54.8592 23.3235 54.8439 23.31 54.8287 23.2965C53.8024 24.268 52.9527 25.3526 51.7146 26.2015C50.5852 26.9945 49.3956 27.6959 48.2404 28.4443C44.7773 30.6806 41.5044 33.1564 38.1946 35.594C34.9847 37.9734 31.8005 40.3974 28.4829 42.616C27.2922 43.3926 26.1135 44.5498 24.6044 44.364Z" fill="#002B46"/>
<path fill-rule="evenodd" clip-rule="evenodd" d="M22.3787 41.9581C22.6064 40.6697 23.6283 39.8574 24.6052 39.1086C26.6056 37.4348 28.6211 35.7745 30.6713 34.1611C34.8671 30.7146 39.2291 27.4917 43.7486 24.4901C45.8078 23.1622 47.8224 21.7186 50.0256 20.6273C50.6003 20.2995 51.2219 20.0785 51.7574 19.7214C51.7819 19.6997 51.8257 19.7114 51.8363 19.7425C51.8615 19.8247 51.7675 19.9317 51.7203 20.004C51.4127 20.422 51.0683 20.8018 50.6976 21.1746C49.2388 22.6816 47.3909 23.7074 45.6857 24.9033C40.5128 28.3532 35.4908 32.0133 30.6871 35.9485C28.8146 37.4583 26.9397 38.977 25.1192 40.5384C24.3778 41.284 23.4533 41.9052 22.3787 41.9581Z" fill="#002B46"/>
<path fill-rule="evenodd" clip-rule="evenodd" d="M12.4626 52.0582C12.4036 52.033 12.4147 52.0265 12.4111 51.969C12.3546 51.0104 13.2053 50.3129 14.0279 50.0418C14.5606 49.8727 15.6851 49.418 16.1274 49.8757C16.2796 50.1522 15.9607 50.2935 15.7914 50.437C14.8765 51.3062 13.8371 52.576 12.4626 52.0582Z" fill="#002B46"/>
<path fill-rule="evenodd" clip-rule="evenodd" d="M7.33737 70.2197C7.57027 68.2723 9.79009 68.0062 11.2223 67.2752C11.9768 66.835 12.9721 66.3364 12.6484 65.2877C11.3682 60.3985 5.70701 60.7933 4.28889 57.0654C3.56286 54.6262 5.6753 52.8125 7.74616 52.0443C9.05765 51.5924 10.4452 51.8118 11.7743 51.9684C11.7519 51.8398 11.6747 51.706 11.57 51.6403C11.691 51.6443 11.8483 51.724 11.9506 51.7985C12.2868 51.9826 12.1844 52.3703 11.8959 52.5386C10.0316 53.6261 7.34336 53.569 6.06267 55.5387C5.25756 57.9467 9.02833 58.7739 10.442 59.9248C11.4193 60.6668 12.4206 61.4247 13.1142 62.4589C14.4165 64.4576 15.2114 66.8492 12.8627 68.4206C11.9389 69.1458 10.8243 69.5276 9.7401 69.9364C8.98661 70.3014 8.13856 70.2071 7.33737 70.2197Z" fill="#002B46"/>
</svg>
