<svg width="33" height="35" viewBox="0 0 33 35" fill="none" xmlns="http://www.w3.org/2000/svg">
<path fill-rule="evenodd" clip-rule="evenodd" d="M22.5446 34.3934C19.3896 33.8487 17.3208 30.1592 15.4244 27.805C13.528 28.6658 12.1488 30.3876 10.6316 31.7931C7.20083 35.3245 4.47689 30.9498 2.25291 28.4199C-4.1087 22.2356 4.66653 19.7407 8.1318 15.5944C8.11456 15.4012 8.1318 15.2079 8.1318 15.0147C5.47682 12.5198 2.92528 9.51553 5.5975 5.949C6.99395 3.91099 8.51108 1.71485 10.7351 0.572859C14.7003 -1.25433 18.3897 4.71917 20.7861 7.21398C24.9754 6.14226 27.1994 2.71629 30.6819 7.51265C31.8198 8.8479 33.5955 10.517 32.8024 12.4671C31.4232 15.4715 27.7683 15.9107 25.234 17.4919C26.0788 19.3718 27.4925 20.9354 28.6993 22.5694C30.3371 24.4493 31.5267 26.2764 29.7165 28.5604C28.8889 29.6673 27.8545 30.616 26.8718 31.5999C25.6305 32.7594 24.441 34.5691 22.5446 34.3934ZM22.5963 30.4228C23.941 29.0172 25.4926 27.805 26.7339 26.294C24.872 23.3248 18.8379 17.9136 22.6825 14.5754C24.5789 13.0996 27.0442 12.6955 29.0441 11.3954C28.4235 10.4116 27.7856 9.41012 26.9753 8.58437C24.4927 9.28713 22.4756 10.9035 19.9413 10.7629C16.8898 10.1832 15.252 4.84215 12.2867 3.61231C10.7178 4.57861 9.44205 6.24768 8.42488 7.77619C8.14904 8.28569 7.92492 8.86547 8.11456 9.44525C8.54556 11.0089 8.99381 12.555 9.44205 14.1011C11.3212 14.5403 12.1315 16.6662 10.8557 18.2122C8.61452 20.3381 5.64922 21.7261 3.63212 24.133C5.02857 25.8021 6.33883 27.559 7.89044 29.0699C10.2868 27.0144 14.0624 22.3761 17.476 24.4844C19.4931 26.1359 20.424 28.8767 22.5963 30.4228Z" fill="#FFA100"/>
</svg>
