<svg width="40" height="40" viewBox="0 0 40 40" fill="none" xmlns="http://www.w3.org/2000/svg">
<path d="M19.9999 0L0.61499 8.28014L9.45332 12.0679V17.1674L20 21.6873L30.5466 17.1674V12.0679L32.8903 11.0635V21.1723H35.234V10.0591L39.3849 8.28014L19.9999 0ZM19.9999 2.54854L33.4267 8.28373L19.9999 14.0381L6.57307 8.28373L19.9999 2.54854ZM28.2028 15.622L19.9999 19.1375L11.7969 15.622V13.0725L19.9999 16.588L28.2028 13.0725V15.622Z" fill="#002B46"/>
<path d="M38.7492 32.8909V30.5472H36.9467C37.347 29.8571 37.5774 29.057 37.5774 28.2035C37.5774 25.6189 35.4746 23.5161 32.8899 23.5161H1.25V25.8598C1.89616 25.8598 2.42185 26.3855 2.42185 27.0317V29.3754C2.42185 30.0215 1.89616 30.5472 1.25 30.5472V32.8909L3.05246 32.8901C2.65224 33.5802 2.42185 34.3811 2.42185 35.2346C2.42185 37.8044 4.49868 40.0001 7.10925 40.0001H38.7492V37.6564C38.125 37.6564 37.5774 37.0723 37.5774 36.4065V34.0628C37.5774 33.4166 38.103 32.8909 38.7492 32.8909ZM35.2337 28.2035C35.2337 29.4958 34.1823 30.5472 32.8899 30.5472H18.8277V25.8598H32.8899C34.1823 25.8598 35.2337 26.9112 35.2337 28.2035ZM4.56477 25.8598H16.484V30.5472H4.56477C4.69477 30.1805 4.76555 29.7861 4.76555 29.3754V27.0317C4.76555 26.621 4.69477 26.2265 4.56477 25.8598ZM7.10925 37.6564C5.83881 37.6564 4.76555 36.5474 4.76555 35.2346C4.76555 33.9423 5.81693 32.8909 7.10925 32.8909H16.484V35.2346H18.8277V32.8901H35.4344C35.3044 33.2568 35.2337 33.6521 35.2337 34.0628V36.4065C35.2337 36.8378 35.3103 37.2599 35.457 37.6564H7.10925Z" fill="#002B46"/>
</svg>
