<svg width="40" height="40" viewBox="0 0 40 40" fill="none" xmlns="http://www.w3.org/2000/svg">
<g clip-path="url(#clip0_260:860)">
<path d="M8.00056 0C4.69198 0.000703104 2.00073 2.69195 2.00073 6.00053C2.00073 9.3091 4.69198 11.9997 8.00056 11.9997C11.3091 11.9997 14.0004 9.30848 14.0004 5.9999C14.0004 2.69125 11.3091 0 8.00056 0ZM8.00056 10.0004C5.79132 10.0004 4.00067 8.20976 4.00067 6.00053C4.00067 3.7913 5.79132 2.00064 8.00056 2.00064C10.2098 2.00064 12.0004 3.7913 12.0004 6.00053C12.0004 8.20976 10.2099 10.0004 8.00056 10.0004Z" fill="#002B46"/>
<path d="M37.9996 9.99976H18.0002C16.8955 9.99976 16.0002 10.895 16.0002 11.9997V13.527L18.0002 14.527V11.9997H37.9996V27.9985H18.0002V25.6213L16.0002 25.122V27.9985C16.0002 29.1032 16.8955 29.9985 18.0002 29.9985H26.2346L21.1428 38.4843C20.8575 38.9569 21.0121 39.5722 21.4867 39.8555C21.9554 40.1429 22.5727 39.9882 22.858 39.5116L26.9999 32.6078V38.9976C26.9999 39.5502 27.4473 39.9976 27.9999 39.9976C28.5525 39.9976 28.9999 39.5502 28.9999 38.9976V32.6078L33.1424 39.5109C33.3298 39.8236 33.6617 39.9969 33.9997 39.9969C34.1757 39.9969 34.3531 39.9523 34.5137 39.8543C34.9884 39.5709 35.1424 38.9557 34.8577 38.483L29.7658 29.9972H37.9995C39.1042 29.9972 39.9995 29.1019 39.9995 27.9973V11.9997C39.9996 10.895 39.1043 9.99976 37.9996 9.99976Z" fill="#002B46"/>
<path d="M34.9604 15.7243C34.8097 15.193 34.2571 14.8804 33.7244 15.039L21.3841 18.5649C21.2401 18.4256 21.0788 18.3036 20.8948 18.211L12.895 14.2111C12.6171 14.0724 12.3111 13.9998 12.0004 13.9998H4.00061C3.034 13.9998 2.20598 14.6911 2.0327 15.6417L0.0327587 26.6407C-0.0732538 27.2241 0.0847885 27.8247 0.464777 28.28C0.844766 28.7353 1.40741 28.9986 2.00075 28.9986H3.27868L4.00733 38.1563C4.08998 39.1963 4.9573 39.9976 6.00063 39.9976H10.0005C11.0198 39.9976 11.8758 39.2316 11.9884 38.219L13.7357 22.4947L19.5155 23.9394C19.6755 23.9794 19.8382 23.9987 20.0002 23.9987C20.4415 23.9987 20.8755 23.8527 21.2309 23.5753C21.7162 23.1967 22.0002 22.6147 22.0002 21.9987V20.4675L34.2751 16.9602C34.8064 16.8096 35.1131 16.2549 34.9604 15.7243ZM20.0001 21.9994L12.0004 19.9995L10.0004 37.9983H6.00055L5.12589 26.9987H2.00067L4.00061 15.9997H7.00052V22.0835C7.00052 22.6361 7.44785 23.0835 8.00049 23.0835C8.55313 23.0835 9.00046 22.6361 9.00046 22.0835V15.9996H12.0004L20.0001 19.9995V21.9994Z" fill="#002B46"/>
</g>
<defs>
<clipPath id="clip0_260:860">
<rect width="40" height="40" fill="white"/>
</clipPath>
</defs>
</svg>
