<svg width="40" height="40" viewBox="0 0 40 40" fill="none" xmlns="http://www.w3.org/2000/svg">
<g clip-path="url(#clip0_260:853)">
<path d="M38.9743 33.8809L29.082 2.75883C28.4683 0.829531 26.3995 -0.241484 24.4705 0.371484L20.8958 1.50758C20.6471 1.58672 20.4113 1.69133 20.1904 1.81734C19.5519 0.731172 18.3716 0 17.0232 0H13.2732C12.308 0 11.4292 0.374844 10.7732 0.985937C10.1171 0.374844 9.23835 0 8.27319 0H4.52319C2.49851 0 0.851318 1.64719 0.851318 3.67188V36.3281C0.851318 38.3528 2.49851 40 4.52319 40H8.27319C9.23835 40 10.1172 39.6252 10.7732 39.0141C11.4292 39.6251 12.308 40 13.2732 40H17.0232C19.0479 40 20.6951 38.3528 20.6951 36.3281V12.9954L28.4017 37.2412C28.8982 38.8021 30.3472 39.8013 31.9041 39.8013C32.2716 39.8013 32.645 39.7456 33.0133 39.6286L36.588 38.4925C37.5224 38.1951 38.2854 37.5517 38.7362 36.681C39.1871 35.8098 39.2716 34.8152 38.9743 33.8809ZM32.9541 22.678L26.8488 24.6186L23.015 12.557L29.1202 10.6163L32.9541 22.678ZM33.6641 24.9116L34.4687 27.443L28.3634 29.3837L27.5588 26.8522L33.6641 24.9116ZM11.9451 11.1719H18.3513V23.8281H11.9451V11.1719ZM9.60132 23.8281H3.19507V11.1719H9.60132V23.8281ZM3.19507 26.1719H9.60132V28.8281H3.19507V26.1719ZM11.9451 26.1719H18.3513V28.8281H11.9451V26.1719ZM13.2732 2.34375H17.0232C17.7555 2.34375 18.3513 2.93953 18.3513 3.67188V8.82812H11.9451V3.67188C11.9451 2.93953 12.5408 2.34375 13.2732 2.34375ZM4.52319 2.34375H8.27319C9.00554 2.34375 9.60132 2.93953 9.60132 3.67188V8.82812H3.19507V3.67188C3.19507 2.93953 3.79085 2.34375 4.52319 2.34375ZM8.27319 37.6562H4.52319C3.79085 37.6562 3.19507 37.0605 3.19507 36.3281V31.1719H9.60132V36.3281C9.60132 37.0605 9.00554 37.6562 8.27319 37.6562ZM17.0232 37.6562H13.2732C12.5408 37.6562 11.9451 37.0605 11.9451 36.3281V31.1719H18.3513V36.3281C18.3513 37.0605 17.7555 37.6562 17.0232 37.6562ZM20.6951 4.81883C20.7671 4.31609 21.12 3.89578 21.6062 3.74102L25.1804 2.60508C25.8783 2.38336 26.6266 2.77109 26.8486 3.46898L28.4104 8.38266L22.3051 10.3233L20.7434 5.40977C20.7202 5.33719 20.6951 4.81883 20.6951 4.81883ZM36.6547 35.6034C36.4916 35.9186 36.2153 36.1514 35.8775 36.259L32.3033 37.3949C31.6058 37.6166 30.8572 37.229 30.6351 36.531L29.0733 31.6173L35.1786 29.6767L36.7407 34.5914C36.8483 34.9291 36.8177 35.2885 36.6547 35.6034Z" fill="#002B46"/>
</g>
<defs>
<clipPath id="clip0_260:853">
<rect width="40" height="40" fill="white"/>
</clipPath>
</defs>
</svg>
