<svg width="40" height="40" viewBox="0 0 40 40" fill="none" xmlns="http://www.w3.org/2000/svg">
<path d="M16.875 35.3125C17.3063 35.3125 17.6562 35.6625 17.6562 36.0938C17.6562 36.525 17.3063 36.875 16.875 36.875C16.4438 36.875 16.0938 36.525 16.0938 36.0938C16.0938 35.6625 16.4438 35.3125 16.875 35.3125Z" fill="#002B46"/>
<path d="M5.9375 3.59375H8.28125V2.34375C8.28125 1.05141 9.33266 0 10.625 0H29.375C30.6673 0 31.7188 1.05141 31.7188 2.34375V3.59375H34.0625C35.3548 3.59375 36.4062 4.64516 36.4062 5.9375C36.4062 11.0201 34.028 14.7552 30.1697 15.7952C28.847 18.7065 26.7558 21.1814 24.1014 22.9698C23.49 23.3817 23.125 24.087 23.125 24.8563V29.1609C23.6605 29.2982 24.1519 29.5766 24.5532 29.978C25.1436 30.5685 25.4688 31.3531 25.4688 32.1875H26.25C27.5423 32.1875 28.5938 33.2389 28.5938 34.5312V39.2188C28.5938 39.6502 28.2439 40 27.8125 40H12.1875C11.7561 40 11.4062 39.6502 11.4062 39.2188V34.5312C11.4062 33.2389 12.4577 32.1875 13.75 32.1875H14.5312C14.5312 30.7341 15.5287 29.5091 16.875 29.1614V24.8602C16.875 24.0884 16.5098 23.3818 15.8978 22.9698C13.2432 21.1813 11.152 18.7063 9.82938 15.7949C5.97164 14.7546 3.59375 11.0197 3.59375 5.9375C3.59375 4.64516 4.64516 3.59375 5.9375 3.59375ZM34.8438 5.9375C34.8438 5.50672 34.4933 5.15625 34.0625 5.15625H31.7188V8.64844C31.7188 10.4293 31.449 12.1732 30.9164 13.8527C33.4026 12.6212 34.8438 9.77703 34.8438 5.9375ZM13.75 33.75C13.3192 33.75 12.9688 34.1005 12.9688 34.5312V38.4375H27.0312V34.5312C27.0312 34.1005 26.6808 33.75 26.25 33.75H13.75ZM9.84375 8.64844C9.84375 10.7825 10.2686 12.8591 11.1067 14.8203C12.2989 17.6107 14.2575 19.9806 16.7706 21.6738C17.8144 22.3764 18.4375 23.5676 18.4375 24.8602V29.8438C18.4375 30.2752 18.0877 30.625 17.6562 30.625C16.7947 30.625 16.0938 31.3259 16.0938 32.1875H23.9062C23.9062 31.7705 23.7436 31.3782 23.4484 31.0829C23.1676 30.8021 22.7991 30.6413 22.405 30.6262C22.3848 30.6277 22.3644 30.6285 22.3438 30.6285C21.9124 30.6285 21.5626 30.2752 21.5626 29.8438V24.8563C21.5626 23.5664 22.1853 22.3768 23.2284 21.674C25.7417 19.9807 27.7003 17.6108 28.8927 14.8202C29.7311 12.8596 30.1562 10.7831 30.1562 8.64844V2.34375C30.1562 1.91297 29.8058 1.5625 29.375 1.5625H10.625C10.1942 1.5625 9.84375 1.91297 9.84375 2.34375V8.64844ZM9.08328 13.8525C8.55094 12.1727 8.28125 10.4288 8.28125 8.64844V5.15625H5.9375C5.50672 5.15625 5.15625 5.50672 5.15625 5.9375C5.15625 9.7768 6.59727 12.6209 9.08328 13.8525Z" fill="#002B46"/>
<path d="M13.8172 9.23125C13.909 8.94836 14.1536 8.74219 14.4479 8.69953L17.8195 8.21016L19.3275 5.1543C19.4592 4.88758 19.7307 4.71875 20.0282 4.71875C20.3256 4.71875 20.5971 4.88758 20.7288 5.1543L22.2368 8.21016L25.6083 8.69953C25.9027 8.74227 26.1471 8.94844 26.2391 9.23125C26.331 9.51414 26.2543 9.82461 26.0414 10.0322L23.6012 12.4103L24.1771 15.7687C24.2274 16.0618 24.1069 16.358 23.8663 16.5328C23.6257 16.7076 23.3067 16.7306 23.0436 16.5923L20.0281 15.0069L17.0119 16.5923C16.7471 16.7315 16.4282 16.7065 16.1892 16.5327C15.9486 16.3579 15.8282 16.0616 15.8785 15.7685L16.455 12.4102L14.015 10.0322C13.8019 9.82461 13.7253 9.51414 13.8172 9.23125ZM17.8398 11.578C18.0239 11.7575 18.1081 12.0162 18.0645 12.2697L17.6863 14.4726L19.6646 13.4327C19.8924 13.313 20.1643 13.313 20.3917 13.4327L22.3694 14.4726L21.9916 12.2695C21.9482 12.016 22.0322 11.7574 22.2164 11.578L23.8167 10.0183L21.6057 9.69734C21.3511 9.66039 21.1311 9.50055 21.0173 9.26992L20.0281 7.26531L19.0389 9.26992C18.925 9.50055 18.705 9.66039 18.4505 9.69734L16.2394 10.0183L17.8398 11.578Z" fill="#002B46"/>
<path d="M20 35.3125H23.125C23.5564 35.3125 23.9062 35.6623 23.9062 36.0938C23.9062 36.5252 23.5564 36.875 23.125 36.875H20C19.5686 36.875 19.2188 36.5252 19.2188 36.0938C19.2188 35.6623 19.5686 35.3125 20 35.3125Z" fill="#002B46"/>
<path d="M7.96802 37.6562H7.53247C7.75435 37.6122 7.90356 37.6079 7.96802 37.6562Z" fill="#002B46"/>
</svg>
