<svg width="50" height="50" viewBox="0 0 50 50" fill="none" xmlns="http://www.w3.org/2000/svg">
<g clip-path="url(#clip0_120:231)">
<path d="M49.5701 9.46606L40.5553 0.456885C40.2777 0.179346 39.8994 0.0284668 39.5215 0.0280762L13.8463 -0.000244141C13.8457 -0.000244141 13.8452 -0.000244141 13.8446 -0.000244141C13.0352 -0.000244141 12.3798 0.656689 12.3798 1.4646V12.4855C9.75094 9.26909 4.94254 9.05903 2.04108 11.9589C-1.40033 15.3999 -0.358923 21.2833 4.17028 23.2729C6.7361 24.5568 11.5375 27.2091 14.3809 29.5386C10.3941 33.5227 10.6393 33.2686 10.4715 33.4679C8.98414 35.2213 9.11871 37.779 10.7175 39.3743L12.3798 41.0346V48.5349C12.3798 49.3439 13.0356 49.9998 13.8446 49.9998H48.5346C49.3436 49.9998 49.9995 49.3439 49.9995 48.5349V10.5021C49.9995 10.1248 49.8526 9.74829 49.5701 9.46606ZM40.9846 5.02788L44.9965 9.03726H40.9846V5.02788ZM16.4622 27.4588C15.2184 26.4131 13.7394 25.4026 12.3719 24.5383C6.99557 21.1367 5.08942 20.7194 4.11266 19.7453C2.53317 18.1661 2.53229 15.6109 4.11246 14.0309C5.91696 12.2274 8.94948 12.5214 10.3632 14.6824C10.5404 14.953 14.0527 22.2097 17.5507 26.3712C17.1494 26.7722 17.3841 26.5376 16.4622 27.4588ZM12.7883 35.272L19.0766 28.988L20.6095 27.4566C20.6107 27.4554 20.6117 27.4541 20.613 27.4529L25.368 22.7011C25.9279 22.1413 26.8367 22.138 27.4006 22.7018L28.4551 23.7552C28.4547 23.7557 13.8448 38.3571 13.8448 38.3571L12.788 37.3013C12.2217 36.7353 12.2294 35.831 12.7883 35.272ZM30.0482 29.0634L19.1568 39.9482L17.7766 38.5689L28.668 27.6842L30.0482 29.0634ZM15.3095 47.0701V41.0344L15.7044 40.6399L18.1213 43.0553C18.6934 43.6271 19.6203 43.627 20.1923 43.0553L33.1559 30.0996C33.7281 29.5278 33.7282 28.5993 33.1559 28.0274L30.7403 25.6132L31.5631 24.7911C32.134 24.2205 32.1366 23.2918 31.5628 22.7186L29.4717 20.6296C27.766 18.9235 25.0029 18.9226 23.2966 20.6292L19.6305 24.2928C18.1041 22.4357 16.5098 19.8315 15.3095 17.7161V2.9311L38.0549 2.9562V10.5021C38.0549 11.3111 38.7108 11.9669 39.5198 11.9669H47.0698V47.0701H15.3095Z" fill="white"/>
<path d="M38.3371 31.5663C34.5985 31.5663 31.557 34.6064 31.557 38.3431C31.557 42.0799 34.5985 45.12 38.3371 45.12C42.0757 45.12 45.1172 42.0799 45.1172 38.3431C45.1171 34.6064 42.0756 31.5663 38.3371 31.5663ZM38.3371 42.1902C36.2139 42.1902 34.4868 40.4644 34.4868 38.343C34.4868 36.2217 36.214 34.4959 38.3371 34.4959C40.4601 34.4959 42.1874 36.2217 42.1874 38.343C42.1874 40.4644 40.4601 42.1902 38.3371 42.1902Z" fill="white"/>
<path d="M35.1451 7.34875C35.1451 6.53977 34.4892 5.88391 33.6802 5.88391H19.5314C18.7224 5.88391 18.0665 6.53977 18.0665 7.34875C18.0665 8.15774 18.7224 8.81359 19.5314 8.81359H33.6802C34.4892 8.81359 35.1451 8.15774 35.1451 7.34875Z" fill="white"/>
<path d="M23.6766 11.7398H19.532C18.723 11.7398 18.0671 12.3957 18.0671 13.2047C18.0671 14.0136 18.723 14.6695 19.532 14.6695H23.6766C24.4856 14.6695 25.1414 14.0136 25.1414 13.2047C25.1414 12.3957 24.4856 11.7398 23.6766 11.7398Z" fill="white"/>
<path d="M35.1454 13.2047C35.1454 12.3957 34.4895 11.7398 33.6805 11.7398H29.536C28.727 11.7398 28.0711 12.3957 28.0711 13.2047C28.0711 14.0136 28.727 14.6695 29.536 14.6695H33.6805C34.4895 14.6695 35.1454 14.0136 35.1454 13.2047Z" fill="white"/>
</g>
<defs>
<clipPath id="clip0_120:231">
<rect width="50" height="50" fill="white" transform="translate(0 -0.000244141)"/>
</clipPath>
</defs>
</svg>
