<svg width="50" height="50" viewBox="0 0 50 50" fill="none" xmlns="http://www.w3.org/2000/svg">
<rect opacity="0.1" width="50" height="50" rx="5" fill="#6857FF"/>
<path d="M20.1171 24.2305H27.9468C28.6663 24.2305 29.2831 23.7854 29.5364 23.1568L31.5335 24.1531C31.6371 24.2048 31.7495 24.2304 31.8617 24.2304C31.9959 24.2304 32.1298 24.1938 32.2477 24.121C32.4641 23.9876 32.5958 23.7519 32.5958 23.498V17.6387C32.5958 17.3848 32.4641 17.1491 32.2477 17.0156C32.0313 16.8822 31.761 16.87 31.5335 16.9835L29.5364 17.9799C29.2969 17.3857 28.7326 16.9559 28.0638 16.9106C28.1463 16.6802 28.1915 16.4322 28.1915 16.1738C28.1915 14.9623 27.2037 13.9766 25.9894 13.9766C25.5773 13.9766 25.1914 14.0904 24.8611 14.2878C24.3878 13.5161 23.5352 13 22.5639 13C21.0798 13 19.8724 14.2047 19.8724 15.6855C19.8724 16.125 19.9794 16.5397 20.1677 16.9062H20.1171C19.1726 16.9062 18.4043 17.6729 18.4043 18.6152V22.5215C18.4043 23.4638 19.1726 24.2305 20.1171 24.2305ZM31.1277 22.3129L29.6596 21.5805V19.5562L31.1277 18.8237V22.3129ZM25.9894 15.4414C26.3942 15.4414 26.7234 15.77 26.7234 16.1738C26.7234 16.5777 26.3942 16.9062 25.9894 16.9062C25.5847 16.9062 25.2554 16.5777 25.2554 16.1738C25.2554 15.77 25.5847 15.4414 25.9894 15.4414ZM21.3405 15.6855C21.3405 15.0125 21.8893 14.4648 22.5639 14.4648C23.2385 14.4648 23.7873 15.0125 23.7873 15.6855C23.7873 16.3586 23.2385 16.9062 22.5639 16.9062C21.8893 16.9062 21.3405 16.3586 21.3405 15.6855ZM19.8724 18.6152C19.8724 18.4806 19.9821 18.3711 20.1171 18.3711H27.9468C28.0818 18.3711 28.1915 18.4806 28.1915 18.6152V19.1035V22.0332V22.5215C28.1915 22.6561 28.0818 22.7656 27.9468 22.7656H20.1171C19.9821 22.7656 19.8724 22.6561 19.8724 22.5215V18.6152Z" fill="#6857FF"/>
<path d="M34.7979 25.793H16.2021C14.9879 25.793 14 26.7787 14 27.9902V35.8027C14 37.0143 14.9879 38 16.2021 38H34.7979C36.0121 38 37 37.0143 37 35.8027V27.9902C37 26.7787 36.0121 25.793 34.7979 25.793ZM35.5319 35.8027C35.5319 36.2066 35.2026 36.5352 34.7979 36.5352H16.2021C15.7974 36.5352 15.4681 36.2066 15.4681 35.8027V27.9902C15.4681 27.5864 15.7974 27.2578 16.2021 27.2578H34.7979C35.2026 27.2578 35.5319 27.5864 35.5319 27.9902V35.8027Z" fill="#6857FF"/>
<path d="M19.9153 33.6014C19.9139 33.6014 19.9124 33.6014 19.9111 33.6014C19.5791 33.6032 19.2292 33.6046 18.9356 33.6052V29.4551C18.9356 29.0506 18.607 28.7227 18.2016 28.7227C17.7962 28.7227 17.4675 29.0506 17.4675 29.4551V34.3338C17.4675 34.6905 17.7251 34.9954 18.0775 35.0557C18.1303 35.0647 18.1655 35.0707 18.7122 35.0707C18.9758 35.0707 19.3584 35.0693 19.9193 35.0662C20.3247 35.064 20.6515 34.7342 20.6492 34.3297C20.647 33.9266 20.3187 33.6014 19.9153 33.6014Z" fill="#6857FF"/>
<path d="M22.3627 28.7227C21.9573 28.7227 21.6287 29.0506 21.6287 29.4551V34.3379C21.6287 34.7424 21.9573 35.0703 22.3627 35.0703C22.7681 35.0703 23.0967 34.7424 23.0967 34.3379V29.4551C23.0967 29.0506 22.7681 28.7227 22.3627 28.7227Z" fill="#6857FF"/>
<path d="M32.7982 30.1875C33.2036 30.1875 33.5323 29.8596 33.5323 29.4551C33.5323 29.0506 33.2036 28.7227 32.7982 28.7227H30.7362C30.3309 28.7227 30.0022 29.0506 30.0022 29.4551V34.3379C30.0022 34.7424 30.3309 35.0703 30.7362 35.0703H32.7982C33.2036 35.0703 33.5323 34.7424 33.5323 34.3379C33.5323 33.9334 33.2036 33.6055 32.7982 33.6055H31.4703V32.6289H32.6462C33.0516 32.6289 33.3802 32.301 33.3802 31.8965C33.3802 31.492 33.0516 31.1641 32.6462 31.1641H31.4703V30.1875H32.7982Z" fill="#6857FF"/>
<path d="M28.5207 28.769C28.1358 28.6413 27.7205 28.8493 27.5927 29.2331L26.574 32.293L25.5032 29.2149C25.3702 28.8327 24.9518 28.6304 24.569 28.7632C24.186 28.8958 23.9833 29.3131 24.1162 29.6952L25.7893 34.5048C25.7899 34.5064 25.7905 34.508 25.7911 34.5096C25.9106 34.8456 26.2299 35.0703 26.5869 35.0703H26.5924C26.9516 35.068 27.2706 34.8385 27.3864 34.4992C27.387 34.4974 27.3875 34.4958 27.3881 34.4941L28.9859 29.695C29.1137 29.3111 28.9054 28.8965 28.5207 28.769Z" fill="#6857FF"/>
</svg>
