<svg width="12" height="16" viewBox="0 0 12 16" fill="none" xmlns="http://www.w3.org/2000/svg">
<path d="M6.00001 7.66416C7.44626 7.66416 8.62289 6.48769 8.62289 5.04163C8.62289 3.59557 7.44626 2.41913 6.00001 2.41913C4.55376 2.41913 3.37714 3.59557 3.37714 5.04163C3.37714 6.48769 4.55376 7.66416 6.00001 7.66416ZM6.00001 3.3565C6.92932 3.3565 7.68539 4.11247 7.68539 5.04163C7.68539 5.97082 6.92936 6.72678 6.00001 6.72678C5.07067 6.72678 4.31464 5.97082 4.31464 5.04163C4.31464 4.11247 5.0707 3.3565 6.00001 3.3565Z" fill="#002B46"/>
<path d="M3.14414 9.75409C3.85461 10.7159 3.56917 10.3418 5.61558 13.2636C5.80158 13.5302 6.19711 13.5314 6.38417 13.264C8.43983 10.3284 8.15698 10.7002 8.85589 9.75406C9.56386 8.79556 10.296 7.80444 10.6972 6.643C11.2778 4.96172 11.0268 3.29819 9.99049 1.95881C9.99045 1.95881 9.99045 1.95878 9.99042 1.95878C9.04111 0.73225 7.54936 0 6.00002 0C4.45067 0 2.95892 0.73225 2.00958 1.95884C0.973234 3.29822 0.722234 4.96178 1.30292 6.64306C1.70405 7.80447 2.43617 8.79559 3.14414 9.75409ZM2.75102 2.53247C3.52408 1.53369 4.73867 0.937375 6.00002 0.937375C7.26136 0.937375 8.47595 1.53369 9.24902 2.53247L9.24895 2.53244C10.0854 3.61344 10.285 4.96462 9.81098 6.33706C9.45664 7.36294 8.76786 8.29541 8.10177 9.19719C7.58314 9.89928 7.73836 9.68453 6.00002 12.1763C4.26348 9.68703 4.41673 9.89906 3.89827 9.19719C3.23217 8.29541 2.54339 7.36291 2.18905 6.33706C1.71505 4.96459 1.91461 3.61344 2.75102 2.53247Z" fill="#002B46"/>
<path d="M3.52912 11.7864C3.39087 11.5676 3.10137 11.5022 2.88249 11.6405L1.54968 12.4823C1.25893 12.6659 1.25865 13.091 1.54968 13.2748L5.74968 15.9275C5.90259 16.0241 6.09746 16.0241 6.25034 15.9275L10.4503 13.2748C10.7411 13.0912 10.7414 12.6661 10.4503 12.4823L9.11752 11.6405C8.89859 11.5023 8.60912 11.5676 8.4709 11.7864C8.33262 12.0053 8.39799 12.2948 8.61687 12.433L9.3223 12.8785L5.99999 14.9769L2.67771 12.8785L3.38315 12.433C3.60202 12.2948 3.66737 12.0053 3.52912 11.7864Z" fill="#002B46"/>
</svg>
