<svg width="20" height="20" viewBox="0 0 20 20" fill="none" xmlns="http://www.w3.org/2000/svg">
<path d="M17.8799 18.0125L15.4721 17.4826L14.7259 19.8385C14.6722 20.0079 14.4428 20.0327 14.3542 19.8787L11.3755 14.7043C12.8428 14.3864 14.1483 13.6329 15.1507 12.5857L18.1008 17.7112C18.1894 17.8649 18.0532 18.0507 17.8799 18.0125Z" fill="#FD646F"/>
<path d="M17.8799 18.0123L15.6544 17.5225C15.5511 17.4998 15.4477 17.5595 15.4158 17.6603L14.7259 19.8382C14.6722 20.0076 14.4428 20.0325 14.3542 19.8785L11.8024 15.4453L11.3755 14.7041C12.8428 14.3862 14.1483 13.6327 15.1507 12.5854L15.5743 13.3209L18.1009 17.7109C18.1893 17.8648 18.0532 18.0505 17.8799 18.0123Z" fill="#FD646F"/>
<path d="M17.8805 18.0123L15.6551 17.5225C15.5517 17.5001 15.4484 17.5597 15.4165 17.6602L15.656 16.9159C15.6883 16.8155 15.7918 16.7562 15.8948 16.7791L17.8098 17.2047L18.1015 17.7113C18.1901 17.8648 18.0537 18.0507 17.8805 18.0123Z" fill="#FC4755"/>
<path d="M8.67086 14.6421L5.64508 19.8975C5.55644 20.0515 5.32703 20.0267 5.27336 19.8573L4.58344 17.6792C4.55153 17.5785 4.44802 17.5187 4.34484 17.5415L2.11932 18.0313C1.94604 18.0694 1.80989 17.8837 1.89841 17.7299L4.71256 12.8408C5.76317 13.8369 7.18031 14.3967 8.67086 14.6421Z" fill="#FD646F"/>
<path d="M5.11074 13.568L2.60308 17.9245L2.11935 18.0311C1.94607 18.0693 1.80989 17.8835 1.8984 17.7297L4.29382 13.568L4.94159 12.4397C5.11601 12.6048 5.2982 12.7617 5.48814 12.9092L5.11074 13.568Z" fill="#FC4755"/>
<path d="M5.94025 19.3844L5.64492 19.8974C5.55628 20.0514 5.32712 20.0269 5.2732 19.8574L4.58328 17.6794C4.55142 17.5785 4.44807 17.5188 4.34473 17.5413L5.10777 17.3735C5.21095 17.3507 5.31442 17.4105 5.34632 17.5112L5.94025 19.3844Z" fill="#FC4755"/>
<path d="M4.78024 12.7163L6.77032 13.6137L8.67045 14.642L8.16095 15.5264C6.74025 15.2379 5.42209 14.5767 4.33267 13.6028C4.3196 13.5913 4.30653 13.5798 4.29346 13.5679L4.78024 12.7163Z" fill="#FC4755"/>
<path d="M15.5743 13.3211L15.1507 12.5857L12.9092 13.575L11.3755 14.7043L11.5479 15.0036L11.9712 15.7388L14.3542 19.8787C14.4428 20.0327 14.6722 20.0078 14.7259 19.8384L14.8776 19.3594L12.5091 15.2337C13.6557 14.8347 14.6995 14.1855 15.5743 13.3211Z" fill="#FC4755"/>
<path d="M17.413 7.4359C17.413 9.43448 16.6266 11.2495 15.3469 12.5856C14.3445 13.6328 13.039 14.3863 11.5717 14.7042C11.0648 14.814 10.5391 14.8718 9.99946 14.8718C9.58771 14.8718 9.18413 14.8382 8.79076 14.7735C7.3766 14.5408 6.09683 13.9065 5.07236 12.9912C5.01681 12.9421 4.96248 12.8921 4.90856 12.8409C4.71739 12.6598 4.53603 12.4684 4.36446 12.2681C4.20025 12.0756 4.04585 11.8744 3.90165 11.6654C3.46866 11.039 3.12922 10.342 2.90333 9.59554C2.69704 8.91215 2.58594 8.18735 2.58594 7.43595C2.58594 3.32932 5.90525 0 9.99946 0C10.7482 0 11.4712 0.111434 12.1522 0.318778C12.8968 0.544546 13.5912 0.885015 14.2162 1.31972C14.4245 1.46436 14.6251 1.61922 14.8167 1.78433C15.0732 2.00393 15.3142 2.24117 15.5385 2.49353C16.7047 3.80749 17.413 5.53892 17.413 7.4359Z" fill="#FAA515"/>
<path d="M9.99987 12.7618C12.9325 12.7618 15.3098 10.3773 15.3098 7.43584C15.3098 4.49439 12.9325 2.10986 9.99987 2.10986C7.06728 2.10986 4.68994 4.49439 4.68994 7.43584C4.68994 10.3773 7.06728 12.7618 9.99987 12.7618Z" fill="#FAD207"/>
<path d="M15.3096 7.4358C15.3096 10.3771 12.9323 12.7617 9.99978 12.7617C7.0673 12.7617 4.68994 10.3771 4.68994 7.4358C4.68994 7.21371 4.70342 6.99493 4.72997 6.78027C5.05186 9.41268 7.2887 11.4506 9.99978 11.4506C12.7109 11.4506 14.9477 9.41268 15.2696 6.78027C15.2961 6.99497 15.3096 7.21375 15.3096 7.4358Z" fill="#FAA515"/>
<path fill-rule="evenodd" clip-rule="evenodd" d="M9.99978 2.11011C7.0673 2.11011 4.68994 4.49466 4.68994 7.436C4.68994 10.3774 7.0673 12.7619 9.99978 12.7619C12.9323 12.7619 15.3096 10.3774 15.3096 7.436C15.3096 4.49466 12.9323 2.11011 9.99978 2.11011ZM9.99978 12.1473C7.40961 12.1473 5.30266 10.034 5.30266 7.436C5.30266 4.83802 7.40961 2.72471 9.99978 2.72471C12.59 2.72471 14.6969 4.83802 14.6969 7.436C14.6969 10.034 12.59 12.1473 9.99978 12.1473Z" fill="#FAF063"/>
<path d="M10.1831 4.49068L10.9125 5.98069C10.9422 6.04139 11 6.08347 11.0669 6.09307L12.7062 6.3286C12.874 6.3527 12.9411 6.55886 12.8196 6.67707L11.6307 7.83483C11.5824 7.88184 11.5604 7.94961 11.5719 8.01599L11.8552 9.65298C11.8842 9.82021 11.7083 9.94774 11.5583 9.86829L10.0953 9.09299C10.0355 9.06129 9.96383 9.06129 9.90403 9.09299L8.44097 9.86829C8.29098 9.94778 8.11513 9.82025 8.14409 9.65298L8.42741 8.01599C8.43889 7.94961 8.41691 7.88184 8.36863 7.83483L7.17966 6.67707C7.05822 6.55882 7.12534 6.3527 7.2931 6.3286L8.93237 6.09307C8.99924 6.08347 9.05704 6.04139 9.08678 5.98069L9.8162 4.49068C9.89092 4.33807 10.1084 4.33807 10.1831 4.49068Z" fill="#FAA515"/>
</svg>
