<svg width="20" height="20" viewBox="0 0 20 20" fill="none" xmlns="http://www.w3.org/2000/svg">
<g clip-path="url(#clip0_468:2038)">
<path d="M19.1129 6.01287V2.88868C19.1129 2.14029 18.5048 1.53223 17.7565 1.53223H1.35645C0.608064 1.53223 0 2.14029 0 2.88868V13.4709V13.7855C0 14.5355 0.608064 15.1435 1.35645 15.1435H6.85161V16.5435H4.94516C4.81613 16.5435 4.7 16.5967 4.61452 16.6806C4.52903 16.7661 4.47742 16.8838 4.47742 17.0129C4.47742 17.2709 4.6871 17.4806 4.94516 17.4806H13.5419C13.5855 18.0322 14.0484 18.4677 14.6129 18.4677H18.9258C19.5194 18.4677 20 17.9871 20 17.3951V17.3016V7.07094C20 6.5419 19.6177 6.10158 19.1129 6.01287ZM13.5387 16.5435H12.2613V15.1435H13.5387V16.5435Z" fill="#E7F2F1"/>
<path d="M15.961 14.2838L16.653 14.5693C16.4965 14.8806 16.2949 15.166 16.0465 15.4273C15.8159 15.0935 15.4998 14.9693 15.0981 15.0564C15.1046 14.6886 15.1627 14.3354 15.2707 13.9983L15.961 14.2838Z" fill="#FFC05A"/>
<path d="M15.0984 15.0565C15.5 14.9694 15.8161 15.0936 16.0468 15.4275C15.8097 15.6791 15.529 15.9065 15.2064 16.1129C15.129 15.75 15.0919 15.3968 15.0984 15.0565Z" fill="#655F68"/>
<path d="M18.4792 8.34338C18.8308 8.48854 18.9985 8.89177 18.8534 9.24338L16.6534 14.5692L15.9614 14.2837L18.4243 8.3208L18.4792 8.34338Z" fill="#A35757"/>
<path d="M17.471 8.67253C17.6162 8.32092 18.0178 8.15318 18.3694 8.29834L18.4242 8.32092L15.9613 14.2838L15.271 13.9983L17.471 8.67253Z" fill="#AD6A6A"/>
<path d="M13.5386 17.3018H19.9999V17.3953C19.9999 17.9872 19.5192 18.4679 18.9257 18.4679H14.6128C14.0483 18.4679 13.5853 18.0324 13.5418 17.4808C13.5402 17.4534 13.5386 17.4243 13.5386 17.3953V17.3018Z" fill="#655F68"/>
<path d="M18.8309 5.99683L18.4647 6.65167C18.3131 6.92586 18.0244 7.09521 17.7115 7.09521H16.7696H15.8244C15.5115 7.09521 15.2228 6.92586 15.0696 6.65167L14.7051 5.99683H18.8309Z" fill="#655F68"/>
<path d="M6.85156 15.1436H12.2612V16.5436H6.85156V15.1436Z" fill="#655F68"/>
<path d="M13.5388 17.3951C13.5388 17.4241 13.5405 17.4531 13.5421 17.4806H4.94528C4.68722 17.4806 4.47754 17.2709 4.47754 17.0128C4.47754 16.8838 4.52915 16.766 4.61464 16.6806C4.70012 16.5967 4.81625 16.5435 4.94528 16.5435H6.85173H12.2614H13.5388V17.3015V17.3951Z" fill="#C2C2C2"/>
<path d="M13.5387 13.4709V15.1435H12.2613H6.85161H1.35645C0.608064 15.1435 0 14.5355 0 13.7855V13.4709H13.5387Z" fill="#C2C2C2"/>
<path d="M19.1129 2.88868V6.01287C19.0532 6.00158 18.9903 5.99674 18.9258 5.99674H18.8306H14.7048H14.6129C14.4629 5.99674 14.321 6.02739 14.1919 6.08223L14.0806 4.54352C14.0806 4.54352 13.4565 3.93061 12.0048 3.93061C10.5532 3.93061 9.55645 4.6661 9.55645 4.6661C9.55645 4.6661 8.55968 3.93061 7.10807 3.93061C5.65645 3.93061 5.03226 4.54352 5.03226 4.54352L4.64032 9.98545C4.64032 9.98545 4.82419 9.87255 5.14032 9.74997L5.03226 10.5596L5.35323 11.2855C6.76129 10.7838 8.14839 10.7838 9.55645 11.2855C10.8903 10.8096 12.2065 10.7855 13.5387 11.2113V13.4709H0V2.88868C0 2.14029 0.608065 1.53223 1.35645 1.53223H17.7565C18.5048 1.53223 19.1129 2.14029 19.1129 2.88868Z" fill="#6FCEAE"/>
<path d="M13.5389 10.4V11.2113C12.2066 10.7855 10.8905 10.8097 9.55664 11.2855V10.5597C10.8905 10.1178 12.2083 10.0645 13.5389 10.4Z" fill="#B8D3CF"/>
<path d="M9.55642 10.5595V11.2854C8.14836 10.7837 6.76126 10.7837 5.35319 11.2854L5.03223 10.5595C6.54674 10.0563 8.0419 10.0563 9.55642 10.5595Z" fill="#C3DDDA"/>
<path d="M13.5389 9.60652V10.4001C12.2083 10.0646 10.8905 10.1178 9.55664 10.5597C9.55664 10.5597 10.1405 9.78071 11.6954 9.50651C12.4083 9.38071 13.0502 9.47264 13.5389 9.60652Z" fill="#C3DDDA"/>
<path d="M7.41771 9.50646C8.97255 9.78066 9.55642 10.5597 9.55642 10.5597C8.0419 10.0565 6.54674 10.0565 5.03223 10.5597L5.14029 9.75001C5.63868 9.55646 6.4661 9.33872 7.41771 9.50646Z" fill="#D6EAE8"/>
<path d="M14.0808 4.54357L14.1921 6.08227C13.8083 6.24679 13.5389 6.62743 13.5389 7.07098V9.60646C13.0502 9.47259 12.4083 9.38066 11.6954 9.50646C10.1405 9.78066 9.55664 10.5597 9.55664 10.5597V4.66615C9.55664 4.66615 10.5534 3.93066 12.005 3.93066C13.4566 3.93066 14.0808 4.54357 14.0808 4.54357Z" fill="#E0AC69"/>
<path d="M9.55626 4.66615V10.5597C9.55626 10.5597 8.97239 9.78066 7.41755 9.50646C6.46594 9.33872 5.63852 9.55646 5.14014 9.75001C4.82401 9.87259 4.64014 9.9855 4.64014 9.9855L5.03207 4.54357C5.03207 4.54357 5.65626 3.93066 7.10788 3.93066C8.55949 3.93066 9.55626 4.66615 9.55626 4.66615Z" fill="#F1C27D"/>
<path d="M19.9999 7.07076V17.3014H13.5386V16.7869C14.2434 16.7869 14.8612 16.6675 15.4047 16.4546C18.2112 15.353 18.9757 11.7337 19.1434 9.06269C19.2531 7.34011 19.1128 6.0127 19.1128 6.0127C19.6176 6.1014 19.9999 6.54173 19.9999 7.07076Z" fill="#D6EAE8"/>
<path d="M13.5387 11.2114V13.4711H0V12.5147C0 12.5147 2.87742 12.1389 6.2129 11.0421C7.32742 10.805 8.43548 10.8856 9.55645 11.2856C10.8903 10.8098 12.2065 10.7856 13.5387 11.2114Z" fill="#53B79A"/>
<path d="M18.926 5.99674H18.8308H14.705H14.6421C15.6469 4.74352 16.2727 3.26771 16.2727 1.53223H17.7566C18.505 1.53223 19.1131 2.14029 19.1131 2.88868V6.01287C19.0534 6.00158 18.9905 5.99674 18.926 5.99674Z" fill="#53B79A"/>
</g>
<defs>
<clipPath id="clip0_468:2038">
<rect width="20" height="20" fill="white"/>
</clipPath>
</defs>
</svg>
