<svg width="50" height="50" viewBox="0 0 50 50" fill="none" xmlns="http://www.w3.org/2000/svg">
<g clip-path="url(#clip0_120:200)">
<path d="M10.0007 -0.000244141C5.86496 0.00063474 2.5009 3.3647 2.5009 7.50041C2.5009 11.6361 5.86496 14.9994 10.0007 14.9994C14.1364 14.9994 17.5005 11.6354 17.5005 7.49963C17.5005 3.36382 14.1364 -0.000244141 10.0007 -0.000244141ZM10.0007 12.5003C7.23914 12.5003 5.00083 10.262 5.00083 7.50041C5.00083 4.73887 7.23914 2.50056 10.0007 2.50056C12.7622 2.50056 15.0005 4.73887 15.0005 7.50041C15.0005 10.262 12.7623 12.5003 10.0007 12.5003Z" fill="white"/>
<path d="M47.4995 12.4994H22.5002C21.1193 12.4994 20.0002 13.6185 20.0002 14.9993V16.9084L22.5002 18.1584V14.9993H47.4995V34.9979H22.5002V32.0263L20.0002 31.4022V34.9979C20.0002 36.3787 21.1193 37.4978 22.5002 37.4978H32.7932L26.4284 48.105C26.0717 48.6958 26.265 49.4649 26.8583 49.8191C27.4442 50.1783 28.2158 49.9849 28.5724 49.3892L33.7498 40.7594V48.7467C33.7498 49.4375 34.309 49.9967 34.9998 49.9967C35.6906 49.9967 36.2498 49.4375 36.2498 48.7467V40.7594L41.4279 49.3884C41.6621 49.7792 42.077 49.9959 42.4996 49.9959C42.7196 49.9959 42.9413 49.94 43.1421 49.8176C43.7354 49.4634 43.9279 48.6943 43.572 48.1035L37.2072 37.4962H47.4994C48.8802 37.4962 49.9993 36.3771 49.9993 34.9963V14.9993C49.9994 13.6185 48.8803 12.4994 47.4995 12.4994Z" fill="white"/>
<path d="M43.7005 19.655C43.5122 18.9909 42.8214 18.6001 42.1556 18.7984L26.7301 23.2058C26.5502 23.0317 26.3485 22.8792 26.1185 22.7633L16.1188 17.7635C15.7714 17.5901 15.3889 17.4993 15.0005 17.4993H5.00079C3.79253 17.4993 2.7575 18.3635 2.54091 19.5518L0.0409789 33.3005C-0.0915367 34.0297 0.106016 34.7805 0.581002 35.3496C1.05599 35.9187 1.75929 36.2479 2.50097 36.2479H4.09838L5.00919 47.695C5.11251 48.995 6.19666 49.9966 7.50082 49.9966H12.5007C13.7748 49.9966 14.8447 49.0391 14.9856 47.7733L17.1697 28.1181L24.3945 29.9239C24.5945 29.9739 24.7978 29.998 25.0003 29.998C25.552 29.998 26.0944 29.8155 26.5386 29.4688C27.1453 28.9955 27.5002 28.268 27.5002 27.4981V25.584L42.8439 21.1999C43.5081 21.0116 43.8914 20.3183 43.7005 19.655ZM25.0002 27.4989L15.0005 24.999L12.5006 47.4976H7.50072L6.40739 33.748H2.50087L5.00079 19.9993H8.75068V27.604C8.75068 28.2948 9.30985 28.854 10.0006 28.854C10.6914 28.854 11.2506 28.2948 11.2506 27.604V19.9992H15.0005L25.0002 24.999V27.4989Z" fill="white"/>
</g>
<defs>
<clipPath id="clip0_120:200">
<rect width="50" height="50" fill="white" transform="translate(0 -0.000244141)"/>
</clipPath>
</defs>
</svg>
