<svg width="20" height="20" viewBox="0 0 20 20" fill="none" xmlns="http://www.w3.org/2000/svg">
<g clip-path="url(#clip0_468:2118)">
<path d="M14.8851 9.16675C11.8808 9.16675 9.43652 11.5968 9.43652 14.5834C9.43652 17.5701 11.8808 20.0001 14.8851 20.0001C17.8893 20.0001 20.3336 17.5701 20.3336 14.5834C20.3336 11.5968 17.8893 9.16675 14.8851 9.16675ZM15.1994 13.9584C16.1818 13.9584 16.9806 14.7526 16.9806 15.7293C16.9806 16.7059 16.1818 17.5001 15.1994 17.5001H14.2564C13.9093 17.5001 13.6277 17.2201 13.6277 16.8751C13.6277 16.5301 13.9093 16.2501 14.2564 16.2501H15.1994C15.4886 16.2501 15.7233 16.0168 15.7233 15.7293C15.7233 15.4418 15.4886 15.2084 15.1994 15.2084H14.2564C13.9093 15.2084 13.6277 14.9284 13.6277 14.5834V12.2918C13.6277 11.9468 13.9093 11.6668 14.2564 11.6668H16.352C16.699 11.6668 16.9806 11.9468 16.9806 12.2918C16.9806 12.6368 16.699 12.9168 16.352 12.9168H14.8851V13.9584H15.1994Z" fill="#F44336"/>
<path d="M14.8858 7.49996C15.3166 7.49996 15.7374 7.54496 16.1473 7.61746L16.8028 6.94996C17.1591 6.58746 16.9546 5.97246 16.4483 5.89579L11.4222 5.13162L9.16902 0.358291C8.96198 -0.0800423 8.23858 -0.0800423 8.03154 0.358291L5.77668 5.13246L0.750624 5.89579C0.242654 5.97329 0.039801 6.58829 0.395213 6.94996L4.04992 10.6741L3.1857 15.9408C3.10104 16.4533 3.65092 16.8425 4.11027 16.5883L7.76079 14.5833C7.76079 10.6775 10.957 7.49996 14.8858 7.49996Z" fill="#FFC107"/>
</g>
<defs>
<clipPath id="clip0_468:2118">
<rect width="20" height="20" fill="white"/>
</clipPath>
</defs>
</svg>
