<svg width="50" height="50" viewBox="0 0 50 50" fill="none" xmlns="http://www.w3.org/2000/svg">
<g clip-path="url(#clip0_260:928)">
<path d="M25.4514 37.9514C22.1232 37.9514 18.9959 36.657 16.6453 34.3065C14.2946 31.956 13 28.8284 13 25.5001C13 22.172 14.2945 19.0446 16.6449 16.694C18.9955 14.3433 22.123 13.0487 25.4514 13.0487C28.7795 13.0487 31.9069 14.3432 34.2574 16.6936C36.6081 19.0442 37.9027 22.1717 37.9027 25.5001C37.9027 28.8282 36.6083 31.9556 34.2578 34.3061C31.9072 36.6568 28.7797 37.9514 25.4514 37.9514ZM25.4514 14.9942C19.6584 14.9942 14.9455 19.7071 14.9455 25.5001C14.9455 31.293 19.6584 36.0059 25.4514 36.0059C31.2443 36.0059 35.9572 31.293 35.9572 25.5001C35.9572 19.7071 31.2443 14.9942 25.4514 14.9942Z" fill="#FFA100"/>
<path d="M30.2084 28.8813C31.6442 26.8652 31.6442 24.1347 30.2084 22.1187L31.6423 20.6848C32.0222 20.3049 32.0222 19.6892 31.6423 19.3093C31.2624 18.9294 30.6462 18.9294 30.2663 19.3093L28.833 20.7432C26.8169 19.3074 24.0864 19.3074 22.0703 20.7432L20.6369 19.3093C20.2566 18.9294 19.6408 18.9294 19.261 19.3093C18.8811 19.6892 18.8811 20.3049 19.261 20.6848L20.6948 22.1187C19.259 24.1347 19.259 26.8652 20.6948 28.8813L19.261 30.3151C18.8811 30.695 18.8811 31.3108 19.261 31.6906C19.4511 31.8803 19.7002 31.9757 19.9487 31.9757C20.1977 31.9757 20.4468 31.8803 20.6369 31.6906L22.0703 30.2573C23.0786 30.9752 24.2649 31.3336 25.4516 31.3336C26.1987 31.3336 26.9463 31.1916 27.6491 30.9071C28.062 30.7398 28.4599 30.5233 28.833 30.2573L30.2663 31.6906C30.4565 31.8808 30.7055 31.9757 30.9546 31.9757C31.2031 31.9757 31.4521 31.8803 31.6423 31.6906C32.0222 31.3108 32.0222 30.695 31.6423 30.3151L30.2084 28.8813ZM28.2031 28.2514C26.6861 29.7685 24.2172 29.7685 22.7002 28.2514C21.1832 26.7344 21.1832 24.2655 22.7002 22.7485C23.4589 21.9898 24.455 21.6109 25.4516 21.6109C26.4477 21.6109 27.4443 21.9902 28.2031 22.7485C28.9614 23.5068 29.3407 24.5034 29.3407 25.5C29.3407 26.4966 28.9614 27.4932 28.2031 28.2514Z" fill="#FFA100"/>
<path d="M13.9728 16.9396C13.7239 16.9396 13.4749 16.8447 13.2849 16.6547C12.905 16.2748 12.905 15.6589 13.2849 15.279L15.2304 13.3335C15.6103 12.9536 16.2263 12.9536 16.6062 13.3335C16.986 13.7134 16.986 14.3293 16.6062 14.7092L14.6606 16.6547C14.4707 16.8447 14.2217 16.9396 13.9728 16.9396Z" fill="#FFA100"/>
<path d="M37.0274 16.9396C36.7785 16.9396 36.5295 16.8447 36.3395 16.6547L34.394 14.7092C34.0142 14.3293 34.0142 13.7134 34.394 13.3335C34.7739 12.9536 35.3899 12.9536 35.7698 13.3335L37.7153 15.279C38.0951 15.659 38.0951 16.2749 37.7153 16.6547C37.5253 16.8447 37.2764 16.9396 37.0274 16.9396Z" fill="#FFA100"/>
<path d="M34.9845 37.9514C34.7356 37.9514 34.4866 37.8564 34.2966 37.6664C33.9168 37.2865 33.9168 36.6706 34.2966 36.2908L36.2421 34.3452C36.622 33.9653 37.238 33.9653 37.6179 34.3452C37.9977 34.7251 37.9977 35.3411 37.6179 35.7209L35.6723 37.6664C35.4824 37.8564 35.2334 37.9514 34.9845 37.9514Z" fill="#FFA100"/>
<path d="M15.9183 37.9514C15.6694 37.9514 15.4204 37.8564 15.2304 37.6664L13.2849 35.7209C12.905 35.341 12.905 34.7251 13.2849 34.3452C13.6648 33.9653 14.2808 33.9653 14.6606 34.3452L16.6062 36.2908C16.986 36.6707 16.986 37.2866 16.6062 37.6664C16.4162 37.8564 16.1672 37.9514 15.9183 37.9514Z" fill="#FFA100"/>
</g>
<rect opacity="0.1" width="50" height="50" rx="5" fill="#FFA100"/>
<defs>
<clipPath id="clip0_260:928">
<rect width="25" height="25" fill="white" transform="translate(13 13)"/>
</clipPath>
</defs>
</svg>
