<svg width="50" height="50" viewBox="0 0 50 50" fill="none" xmlns="http://www.w3.org/2000/svg">
<rect width="50" height="50" rx="5" fill="#1DC295" fill-opacity="0.1"/>
<g clip-path="url(#clip0_260:902)">
<path d="M22.3852 20.3775C21.9985 19.8328 21.2421 19.7033 20.6965 20.0915C20.1511 20.4789 20.023 21.2362 20.4104 21.7824L22.7185 25.0356C22.6933 25.1555 22.6789 25.2802 22.6789 25.4082C22.6789 26.3988 23.4802 27.2018 24.4694 27.2018C24.9902 27.2018 25.455 26.976 25.7823 26.6211H28.3789C29.048 26.6211 29.59 26.078 29.59 25.4086C29.59 24.7392 29.048 24.1961 28.3789 24.1961H25.7819C25.5039 23.8945 25.1257 23.6932 24.6989 23.6378L22.3852 20.3775Z" fill="#1DC295"/>
<path d="M33.006 21.545C33.3245 22.2365 33.56 22.9733 33.7015 23.7438C33.7467 23.9916 33.9731 24.162 34.2239 24.1392L36.4804 23.9315C36.615 23.9194 36.738 23.8516 36.8205 23.7446C36.9035 23.6371 36.9371 23.5007 36.9151 23.3672C36.6979 22.0577 36.2784 20.8179 35.6887 19.6789C35.6222 19.5493 35.5012 19.4571 35.359 19.4262C35.2168 19.3961 35.0685 19.4302 34.9543 19.5209L33.1446 20.9599C32.9703 21.0999 32.9122 21.3413 33.006 21.545Z" fill="#1DC295"/>
<path d="M31.321 32.3713C31.1367 32.2449 30.8907 32.2606 30.7237 32.409C29.2677 33.7028 27.4063 34.5483 25.3553 34.726V33.6367C25.3553 33.1899 24.9939 32.8285 24.548 32.8285C24.1021 32.8285 23.7403 33.1903 23.7403 33.6367V34.7252C19.2466 34.337 15.6588 30.7457 15.2709 26.2469H16.3587C16.8046 26.2469 17.166 25.8855 17.166 25.4387C17.166 24.9919 16.8046 24.6305 16.3587 24.6305H15.2677C15.6323 20.4044 18.8235 16.9824 22.9346 16.2609C23.1669 16.22 23.3368 16.0186 23.3368 15.7824V13.4862C23.3368 13.3458 23.2759 13.2114 23.1693 13.1192C23.0632 13.027 22.9221 12.9849 22.7827 13.0049C16.6884 13.8632 12 19.102 12 25.4387C12 32.3761 17.6179 38 24.548 38C27.9524 38 31.0318 36.6351 33.2914 34.4308C33.3956 34.329 33.4489 34.1862 33.4364 34.041C33.4237 33.8958 33.3475 33.763 33.2273 33.6808L31.321 32.3713Z" fill="#1DC295"/>
<path d="M26.1611 16.2601C26.4785 16.3155 26.7901 16.3864 27.095 16.4731C27.3286 16.5392 27.5734 16.4234 27.6715 16.2015L28.5923 14.1232C28.6484 13.9969 28.6476 13.8525 28.5906 13.7261C28.5341 13.6006 28.4264 13.5035 28.2946 13.4614C27.6548 13.2585 26.9936 13.1029 26.3142 13.005C26.1748 12.9854 26.0329 13.0271 25.9268 13.1193C25.8202 13.2116 25.7593 13.3459 25.7593 13.4871V15.7804C25.7589 16.0179 25.9284 16.2196 26.1611 16.2601Z" fill="#1DC295"/>
<path d="M31.16 18.8863C31.3344 19.064 31.6136 19.0804 31.8083 18.926L33.5864 17.5114C33.6933 17.4268 33.7594 17.3005 33.7691 17.1641C33.7787 17.0273 33.7302 16.8941 33.6361 16.7947C32.989 16.1141 32.2666 15.5072 31.4817 14.9854C31.3628 14.9064 31.2145 14.8836 31.0767 14.9237C30.9393 14.9638 30.8263 15.0625 30.7686 15.1936L29.8391 17.2912C29.7465 17.5014 29.8118 17.7477 29.9973 17.8816C30.4124 18.184 30.8006 18.5209 31.16 18.8863Z" fill="#1DC295"/>
<path d="M36.8617 26.5137C36.7592 26.4087 36.6153 26.3549 36.4695 26.3685L34.1638 26.5807C33.9438 26.6004 33.7659 26.7664 33.7291 26.9842C33.5563 28.0145 33.2142 28.9855 32.7326 29.8711C32.6136 30.0897 32.6786 30.3636 32.8841 30.5044L34.7555 31.7902C34.8677 31.8676 35.0071 31.8945 35.1397 31.8636C35.2723 31.8327 35.3857 31.7477 35.453 31.6294C36.2611 30.2059 36.798 28.6105 36.9963 26.9104C37.0136 26.764 36.9639 26.6189 36.8617 26.5137Z" fill="#1DC295"/>
</g>
<defs>
<clipPath id="clip0_260:902">
<rect width="25" height="25" fill="white" transform="translate(12 13)"/>
</clipPath>
</defs>
</svg>
