<svg width="9" height="11" viewBox="0 0 9 11" fill="none" xmlns="http://www.w3.org/2000/svg">
<path d="M4.43194 5.29874C5.14582 5.29874 5.76391 5.03766 6.26907 4.52254C6.77407 4.0075 7.0302 3.37732 7.0302 2.64929C7.0302 1.92151 6.77416 1.29124 6.26899 0.776038C5.76382 0.261085 5.14574 0 4.43194 0C3.71797 0 3.09997 0.261085 2.59489 0.776122C2.0898 1.29116 1.83368 1.92142 1.83368 2.64929C1.83368 3.37732 2.0898 4.00758 2.59489 4.52262C3.10013 5.03757 3.71822 5.29874 4.43194 5.29874ZM3.04195 1.23191C3.42951 0.836714 3.88414 0.644614 4.43194 0.644614C4.97965 0.644614 5.43437 0.836714 5.82201 1.23191C6.20957 1.62719 6.39804 2.09086 6.39804 2.64929C6.39804 3.20788 6.20957 3.67147 5.82201 4.06675C5.43437 4.46203 4.97965 4.65413 4.43194 4.65413C3.8843 4.65413 3.42967 4.46194 3.04195 4.06675C2.65431 3.67156 2.46584 3.20788 2.46584 2.64929C2.46584 2.09086 2.65431 1.62719 3.04195 1.23191Z" fill="#002B46"/>
<path d="M8.97819 8.4585C8.96362 8.24416 8.93416 8.01035 8.89079 7.76345C8.847 7.5147 8.79062 7.27954 8.72314 7.06462C8.65335 6.84247 8.55862 6.6231 8.44134 6.41287C8.31978 6.19467 8.1769 6.00467 8.01658 5.84832C7.84893 5.68475 7.64367 5.55325 7.40631 5.45732C7.16978 5.3619 6.90765 5.31356 6.62725 5.31356C6.51713 5.31356 6.41063 5.35963 6.20496 5.49618C6.07838 5.58035 5.93032 5.6777 5.76506 5.78538C5.62374 5.87719 5.43231 5.96321 5.19586 6.04109C4.96517 6.11721 4.73094 6.15581 4.49967 6.15581C4.26857 6.15581 4.03434 6.11721 3.80348 6.04109C3.56728 5.96329 3.37576 5.87727 3.2347 5.78546C3.071 5.67879 2.92286 5.58144 2.79438 5.49609C2.58888 5.35955 2.48238 5.31348 2.37226 5.31348C2.09178 5.31348 1.82973 5.3619 1.59328 5.4574C1.35608 5.55316 1.15074 5.68467 0.982927 5.8484C0.822604 6.00484 0.679728 6.19475 0.558251 6.41287C0.441136 6.6231 0.346325 6.84239 0.276533 7.0647C0.209128 7.27963 0.152752 7.5147 0.108967 7.76345C0.065512 8.01001 0.0361304 8.24391 0.021563 8.45875C0.00724253 8.66881 0 8.88743 0 9.10831C0 9.68252 0.179006 10.1474 0.531997 10.4902C0.880626 10.8285 1.34184 11 1.90289 11H7.09711C7.65799 11 8.11921 10.8285 8.46792 10.4902C8.82099 10.1476 9 9.6826 9 9.10823C8.99992 8.88659 8.99259 8.66797 8.97819 8.4585ZM8.03205 10.0232C7.80169 10.2467 7.49586 10.3554 7.09702 10.3554H1.90289C1.50398 10.3554 1.19815 10.2467 0.967866 10.0232C0.741948 9.80395 0.632158 9.5046 0.632158 9.10831C0.632158 8.9022 0.638824 8.69869 0.652157 8.50331C0.665161 8.31163 0.691744 8.10107 0.731167 7.87733C0.770095 7.65636 0.819641 7.44899 0.878569 7.26125C0.93511 7.08123 1.01223 6.90298 1.10786 6.73127C1.19913 6.56762 1.30415 6.42722 1.42003 6.31409C1.52842 6.20827 1.66504 6.12166 1.82602 6.0567C1.97491 5.99661 2.14223 5.96371 2.32387 5.95876C2.346 5.97076 2.38543 5.99367 2.44929 6.03614C2.57925 6.1225 2.72904 6.22102 2.89463 6.32886C3.08129 6.45022 3.32177 6.55982 3.60909 6.6544C3.90282 6.75125 4.2024 6.80043 4.49975 6.80043C4.79711 6.80043 5.09677 6.75125 5.39034 6.65449C5.6779 6.55974 5.9183 6.45022 6.10521 6.3287C6.27467 6.21825 6.42026 6.12258 6.55021 6.03614C6.61408 5.99376 6.6535 5.97076 6.67564 5.95876C6.85736 5.96371 7.02468 5.99661 7.17365 6.0567C7.33455 6.12166 7.47117 6.20835 7.57956 6.31409C7.69544 6.42714 7.80046 6.56754 7.89173 6.73136C7.98744 6.90298 8.06464 7.08132 8.1211 7.26117C8.18011 7.44915 8.22974 7.65644 8.26859 7.87725C8.30793 8.1014 8.33459 8.31205 8.3476 8.5034V8.50356C8.36101 8.69818 8.36776 8.90161 8.36784 9.10831C8.36776 9.50468 8.25797 9.80395 8.03205 10.0232Z" fill="#002B46"/>
</svg>
