<svg width="50" height="50" viewBox="0 0 50 50" fill="none" xmlns="http://www.w3.org/2000/svg">
<g clip-path="url(#clip0_120:181)">
<path d="M25 8.69537C20.8044 8.69537 17.3913 12.1084 17.3913 16.3041C17.3913 20.4998 20.8043 23.9128 25 23.9128C29.1957 23.9128 32.6087 20.4997 32.6087 16.3041C32.6087 12.1085 29.1957 8.69537 25 8.69537ZM25 21.7388C22.0044 21.7388 19.5653 19.2997 19.5653 16.3041C19.5653 13.3085 22.0044 10.8694 25 10.8694C27.9956 10.8694 30.4347 13.3085 30.4347 16.3041C30.4347 19.2997 27.9957 21.7388 25 21.7388Z" fill="#F9FAFC"/>
<path d="M40.2175 17.3911C37.2218 17.3911 34.7827 19.8303 34.7827 22.8259C34.7827 25.8215 37.2218 28.2606 40.2175 28.2606C43.2131 28.2606 45.6522 25.8215 45.6522 22.8259C45.6522 19.8303 43.2131 17.3911 40.2175 17.3911ZM40.2175 26.0868C38.4196 26.0868 36.9566 24.6237 36.9566 22.8259C36.9566 21.028 38.4196 19.565 40.2175 19.565C42.0153 19.565 43.4783 21.028 43.4783 22.8259C43.4783 24.6237 42.0152 26.0868 40.2175 26.0868Z" fill="#F9FAFC"/>
<path d="M9.93729 17.3911C6.93943 17.3911 4.50254 19.8303 4.50254 22.8259C4.50254 25.8215 6.94167 28.2606 9.93729 28.2606C12.9329 28.2606 15.372 25.8215 15.372 22.8259C15.372 19.8303 12.9351 17.3911 9.93729 17.3911ZM9.93729 26.0868C8.13943 26.0868 6.67642 24.6237 6.67642 22.8259C6.67642 21.028 8.13943 19.565 9.93729 19.565C11.7352 19.565 13.1982 21.028 13.1982 22.8259C13.1982 24.6237 11.7351 26.0868 9.93729 26.0868Z" fill="#F9FAFC"/>
<path d="M25.0001 26.0868C17.2088 26.0868 10.8696 32.4259 10.8696 40.2172C10.8696 40.8172 11.3566 41.3042 11.9566 41.3042C12.5566 41.3042 13.0436 40.8172 13.0436 40.2172C13.0436 33.6238 18.4066 28.2608 25.0001 28.2608C31.5936 28.2608 36.9566 33.6238 36.9566 40.2172C36.9566 40.8172 37.4436 41.3042 38.0436 41.3042C38.6436 41.3042 39.1305 40.8172 39.1305 40.2172C39.1305 32.4259 32.7914 26.0868 25.0001 26.0868Z" fill="#F9FAFC"/>
<path d="M40.2175 30.4346C38.4284 30.4346 36.6762 30.9237 35.1501 31.8476C34.6393 32.1607 34.474 32.828 34.7849 33.3411C35.1001 33.8542 35.7653 34.0172 36.2784 33.7063C37.4631 32.9867 38.824 32.6084 40.2175 32.6084C44.4131 32.6084 47.8262 36.0215 47.8262 40.2172C47.8262 40.8172 48.3132 41.3042 48.9132 41.3042C49.5132 41.3042 50.0002 40.8172 50.0002 40.2172C50.0001 34.8237 45.611 30.4346 40.2175 30.4346Z" fill="#F9FAFC"/>
<path d="M14.8479 31.8454C13.3239 30.9237 11.5718 30.4346 9.7826 30.4346C4.38913 30.4346 0 34.8237 0 40.2172C0 40.8172 0.48699 41.3042 1.08699 41.3042C1.68699 41.3042 2.17398 40.8172 2.17398 40.2172C2.17388 36.0215 5.58699 32.6084 9.7826 32.6084C11.1761 32.6084 12.5369 32.9867 13.7196 33.7041C14.2304 34.015 14.9 33.852 15.2131 33.3389C15.5261 32.8258 15.3608 32.1584 14.8479 31.8454Z" fill="#F9FAFC"/>
</g>
<defs>
<clipPath id="clip0_120:181">
<rect width="50" height="50" fill="white" transform="translate(0 -0.000244141)"/>
</clipPath>
</defs>
</svg>
